<svg width="16" height="11" viewBox="0 0 16 11" fill="none" xmlns="http://www.w3.org/2000/svg">
<path d="M0.114435 11V0.818182H4.13148C4.90042 0.818182 5.55667 0.955729 6.10023 1.23082C6.64711 1.5026 7.06306 1.88873 7.3481 2.3892C7.63645 2.88636 7.78063 3.47135 7.78063 4.14418C7.78063 4.82031 7.6348 5.40199 7.34313 5.8892C7.05146 6.37311 6.62888 6.74432 6.07537 7.00284C5.52518 7.26136 4.85899 7.39062 4.07679 7.39062H1.38716V5.66051H3.72878C4.13977 5.66051 4.48115 5.60417 4.75293 5.49148C5.02471 5.37879 5.22689 5.20975 5.35946 4.98438C5.49535 4.759 5.5633 4.47893 5.5633 4.14418C5.5633 3.80611 5.49535 3.52107 5.35946 3.28906C5.22689 3.05705 5.02305 2.88139 4.74796 2.76207C4.47618 2.63944 4.13314 2.57812 3.71884 2.57812H2.26713V11H0.114435ZM5.61302 6.36648L8.14355 11H5.76713L3.29128 6.36648H5.61302ZM15.1322 3.72727V11H13.8041L10.64 6.42259H10.5867V11H9.04909V3.72727H10.3985L13.5377 8.30114H13.6017V3.72727H15.1322Z" fill="#CF2928"/>
</svg>
