<svg width="365" height="338" viewBox="0 0 365 338" fill="none" xmlns="http://www.w3.org/2000/svg">
<path d="M362.015 185.004C362.015 185.004 355.381 179.918 345.704 195.864C336.026 211.81 332.119 221.077 332.119 221.077C332.119 221.077 329.623 224.383 327.391 221.924C325.16 219.466 322.339 212.845 318.175 213.709C313.901 214.608 312.131 219.186 312.447 226.121C312.764 233.055 312.875 248.256 312.883 249.638C312.892 251.019 311.969 252.91 310.182 251.494C308.395 250.078 298.418 237.354 292.613 242.406C286.809 247.459 290.904 266.627 291.28 268.729C291.656 270.832 291.211 271.679 290.186 272.12C289.16 272.561 286.219 267.975 283.235 264.49C280.251 261.006 276.165 257.437 273.062 260.633C269.958 263.829 268.035 277.851 279.901 301.707L286.133 312.398L298.641 312.593C325.451 311.423 336.907 302.945 338.232 298.706C339.557 294.467 334.453 292.636 329.913 291.729C325.374 290.822 319.902 290.491 319.8 289.389C319.697 288.287 320.219 287.465 322.27 286.795C324.322 286.125 343.216 280.411 344.874 272.934C346.533 265.457 330.469 262.956 328.366 262.083C326.263 261.21 327.511 259.489 328.708 258.836C329.905 258.183 343.412 250.943 349.679 247.866C355.945 244.788 359.16 241.084 357.878 236.896C356.629 232.869 349.397 233.623 346.174 232.86C342.951 232.097 344.661 228.342 344.661 228.342C344.661 228.342 350.987 220.458 360.391 204.367C369.795 188.277 361.896 184.869 361.896 184.869" fill="#EBEBEB"/>
<path d="M353.321 199.247C353.267 199.363 353.207 199.476 353.142 199.586C353.013 199.832 352.825 200.162 352.586 200.586L350.397 204.41C348.491 207.724 345.695 212.506 342.224 218.406C335.282 230.19 325.562 246.382 314.765 264.27C303.967 282.158 294.195 298.325 287.194 310.049C283.706 315.924 280.884 320.68 278.918 323.978L276.67 327.768L276.071 328.742C276.007 328.857 275.935 328.967 275.857 329.073L276.037 328.725L276.601 327.725C277.114 326.877 277.849 325.555 278.79 323.91C280.696 320.587 283.492 315.806 286.963 309.914C293.905 298.121 303.625 281.937 314.431 264.041C325.237 246.145 334.992 229.995 341.985 218.262C345.473 212.395 348.303 207.639 350.261 204.333L352.518 200.552C352.774 200.128 352.971 199.806 353.107 199.569C353.244 199.331 353.321 199.247 353.321 199.247Z" fill="#E0E0E0"/>
<path d="M321.749 223.196C321.863 223.469 321.946 223.753 321.997 224.044C322.142 224.603 322.322 225.417 322.536 226.417C322.954 228.427 323.467 231.216 323.972 234.31C324.476 237.404 324.904 240.109 325.237 242.22C325.4 243.169 325.528 243.966 325.639 244.61C325.708 244.902 325.745 245.201 325.75 245.501C325.63 245.229 325.544 244.945 325.494 244.653C325.348 244.093 325.169 243.279 324.972 242.279C324.57 240.261 324.117 237.464 323.587 234.378C323.057 231.292 322.613 228.579 322.262 226.477L321.852 224.086C321.782 223.794 321.748 223.496 321.749 223.196Z" fill="#E0E0E0"/>
<path d="M326.878 245.806C326.878 245.704 332.606 244.407 339.702 242.915C346.798 241.423 352.611 240.287 352.637 240.372C352.663 240.456 346.901 241.77 339.813 243.262C332.726 244.755 326.896 245.908 326.878 245.806Z" fill="#E0E0E0"/>
<path d="M309.045 272.502C309.349 272.474 309.655 272.474 309.96 272.502L312.456 272.688C314.559 272.841 317.466 273.044 320.68 273.146C323.895 273.248 326.81 273.256 328.922 273.239H331.418C331.725 273.209 332.034 273.209 332.341 273.239C332.042 273.311 331.735 273.348 331.427 273.35C330.837 273.4 329.982 273.451 328.93 273.494C326.819 273.579 323.895 273.621 320.672 273.494C317.449 273.367 314.533 273.146 312.43 272.926C311.379 272.807 310.532 272.705 309.943 272.621C309.639 272.622 309.337 272.582 309.045 272.502Z" fill="#E0E0E0"/>
<path d="M299.863 253.063C300.038 253.287 300.185 253.532 300.299 253.792L301.359 255.826C302.214 257.522 303.437 259.946 304.736 262.608C306.036 265.27 307.181 267.695 308.002 269.433L308.951 271.527C309.083 271.777 309.187 272.042 309.259 272.315C309.082 272.09 308.933 271.846 308.814 271.586C308.532 271.035 308.173 270.357 307.754 269.552C306.899 267.856 305.685 265.431 304.386 262.769C303.086 260.108 301.932 257.683 301.111 255.945C300.744 255.097 300.419 254.419 300.162 253.851C300.03 253.602 299.93 253.337 299.863 253.063Z" fill="#E0E0E0"/>
<path d="M281.098 274.655C281.317 274.945 281.503 275.258 281.653 275.588C282.004 276.266 282.508 277.139 283.021 278.19C284.158 280.394 285.714 283.455 287.407 286.846C289.1 290.237 290.621 293.314 291.681 295.553C292.194 296.621 292.613 297.511 292.938 298.206C293.109 298.526 293.249 298.861 293.357 299.206C293.144 298.914 292.961 298.602 292.81 298.274L291.434 295.671C290.297 293.467 288.741 290.407 287.048 287.016C285.355 283.624 283.833 280.547 282.773 278.309L281.517 275.647C281.347 275.33 281.207 274.998 281.098 274.655Z" fill="#E0E0E0"/>
<path d="M293.246 298.537C293.636 298.503 294.028 298.503 294.417 298.537L297.581 298.655C300.256 298.757 303.95 298.884 308.036 298.901C312.123 298.918 315.816 298.859 318.492 298.791L321.663 298.715C322.053 298.684 322.445 298.684 322.835 298.715C322.452 298.794 322.063 298.84 321.672 298.85C320.928 298.91 319.842 298.986 318.509 299.054C315.833 299.189 312.123 299.308 308.036 299.283C303.95 299.257 300.239 299.088 297.572 298.918C296.23 298.833 295.153 298.749 294.4 298.681C294.012 298.663 293.626 298.615 293.246 298.537Z" fill="#E0E0E0"/>
<path d="M333.133 131.579L269.752 151.383L283.213 193.744L346.594 173.94L333.133 131.579Z" fill="white"/>
<path d="M346.601 173.915C346.601 173.915 346.507 173.653 346.336 173.144C346.165 172.635 345.917 171.881 345.601 170.906C344.968 168.939 344.037 166.065 342.848 162.386C340.489 155.027 337.095 144.473 332.965 131.604L333.188 131.722L269.83 151.568L269.975 151.289C274.771 166.387 279.328 180.748 283.423 193.677L283.167 193.541L328.836 179.375L341.908 175.348L345.387 174.28L346.293 174.009L346.61 173.924L346.319 174.026L345.464 174.314L342.045 175.408L329.05 179.528L283.321 193.94L283.124 193.999L283.064 193.804C278.952 180.901 274.387 166.548 269.582 151.416L269.514 151.204L269.727 151.136L333.119 131.366L333.29 131.315L333.342 131.485C337.411 144.413 340.754 155.027 343.079 162.428C344.225 166.099 345.122 168.965 345.729 170.906C346.028 171.872 346.259 172.601 346.413 173.127C346.567 173.653 346.601 173.915 346.601 173.915Z" fill="#E0E0E0"/>
<path d="M333.137 131.553C333.137 131.553 333.137 131.621 333.051 131.748L332.761 132.29L331.598 134.367C330.563 136.198 329.084 138.793 327.263 141.997C323.536 148.457 318.398 157.35 312.679 167.269L312.585 167.43L312.405 167.362L310.447 166.642L281.645 155.926L272.934 152.637L270.574 151.721L269.959 151.467C269.886 151.446 269.817 151.415 269.753 151.373C269.83 151.378 269.905 151.395 269.976 151.424L270.6 151.636L272.994 152.484L281.739 155.629L310.593 166.218L312.55 166.947L312.285 167.04C318.048 157.147 323.228 148.279 326.981 141.836C328.862 138.665 330.401 136.097 331.444 134.283L332.675 132.248C332.812 132.036 332.914 131.866 333 131.722C333.039 131.661 333.085 131.604 333.137 131.553Z" fill="#E0E0E0"/>
<path d="M89.4688 34.2974C89.3346 33.7421 89.2685 33.1728 89.2721 32.6019C89.2531 31.9329 89.1788 31.2665 89.0498 30.6096C88.9416 29.7047 88.7644 28.8091 88.5198 27.9307C87.9379 25.5044 86.9927 23.1784 85.7157 21.0299C82.7322 15.8648 78.0297 11.8898 72.4145 9.7862C66.7992 7.68263 60.6209 7.58156 54.9388 9.50032C52.5813 10.2781 50.3582 11.4103 48.3474 12.8575C46.2194 14.3056 44.3451 16.0897 42.799 18.139C39.4603 22.4158 37.5881 27.639 37.4558 33.0459C37.3235 38.4528 38.9381 43.76 42.0638 48.1922C42.8094 49.2493 43.6233 50.2574 44.5003 51.2103C45.3928 52.1181 46.3438 52.9677 47.3471 53.7535C49.2811 55.2839 51.4407 56.5106 53.7504 57.3904C59.3431 59.5725 65.526 59.763 71.2445 57.9295C76.963 56.0959 81.863 52.3519 85.1087 47.336C86.488 45.2421 87.5454 42.9564 88.2462 40.5539C88.5265 39.6853 88.7465 38.7987 88.9045 37.9004C89.0608 37.2477 89.1694 36.5848 89.2294 35.9166C89.2516 35.3426 89.3434 34.7733 89.5029 34.2211C89.568 34.7844 89.568 35.3533 89.5029 35.9166C89.4974 36.596 89.4345 37.2738 89.3149 37.9428C89.2063 38.8651 89.0263 39.7777 88.7763 40.6726C88.1519 43.1588 87.1394 45.5329 85.7755 47.709C83.7814 50.9301 81.1158 53.691 77.9575 55.8068C74.7991 57.9225 71.2211 59.3441 67.4633 59.9761C62.7029 60.7687 57.815 60.2737 53.3144 58.5434C50.875 57.6354 48.5913 56.3601 46.5435 54.7624C45.4825 53.9446 44.4773 53.0582 43.5342 52.1089C42.6082 51.1105 41.7514 50.0512 40.9695 48.9382C37.6565 44.2729 35.9408 38.6764 36.0747 32.972C36.2086 27.2676 38.185 21.7563 41.7133 17.2489C43.3516 15.0967 45.3359 13.2264 47.5865 11.713C49.7074 10.2129 52.0489 9.04623 54.5284 8.2541C59.1088 6.74787 64.0133 6.4902 68.7285 7.50807C72.4508 8.31921 75.955 9.91069 79.0058 12.1757C82.0567 14.4406 84.5835 17.3266 86.4167 20.6399C87.6745 22.8786 88.5716 25.2985 89.0755 27.812C89.2823 28.7185 89.4167 29.6398 89.4773 30.5672C89.5674 31.2415 89.5988 31.9222 89.5713 32.6019C89.6005 33.1691 89.5661 33.7377 89.4688 34.2974Z" fill="#E0E0E0"/>
<path d="M84.194 17.9695C84.2538 18.0542 83.7751 18.4612 82.8603 19.1394L81.1505 20.3432C80.8171 20.5721 80.4666 20.8349 80.0733 21.0723L78.7738 21.7505C74.0613 24.4133 68.7051 25.75 63.2828 25.6163L60.9403 25.5146L58.6834 25.167C58.3157 25.0991 57.9481 25.0568 57.5891 24.9805L56.5375 24.7007C55.8536 24.5142 55.1611 24.3531 54.5114 24.1497C52.2193 23.3786 50.0157 22.3698 47.9371 21.1401C44.4063 19.0207 42.6879 17.0963 42.8076 16.9776C42.9273 16.8589 44.8679 18.4273 48.4244 20.2584C50.5004 21.3195 52.6658 22.1989 54.8961 22.8865C55.5287 23.0645 56.187 23.2002 56.8538 23.3697L57.8626 23.624L58.9056 23.7766L61.06 24.0903L63.2999 24.1836C68.5043 24.2752 73.6532 23.1114 78.3036 20.7925L79.6117 20.233C80.0135 20.021 80.3725 19.8006 80.723 19.6141L82.544 18.6731C83.5528 18.1475 84.1341 17.8932 84.194 17.9695Z" fill="#E0E0E0"/>
<path d="M42.0299 49.7436C41.9701 49.6673 42.4488 49.2604 43.3636 48.5822L45.0734 47.3699C45.4154 47.141 45.7659 46.8867 46.1591 46.6408L47.4501 45.9711C52.1646 43.3055 57.5244 41.9687 62.9497 42.1053L65.2921 42.207L67.5491 42.5546C67.9167 42.6139 68.2843 42.6648 68.6434 42.7326L69.6864 43.0124C70.3789 43.2074 71.0628 43.3684 71.7125 43.5719C74.0056 44.337 76.2095 45.3431 78.2868 46.573C81.8262 48.6924 83.5445 50.6168 83.4163 50.744C83.2881 50.8711 81.3559 49.2943 77.7995 47.4631C75.7253 46.3983 73.5595 45.5188 71.3278 44.8351C70.6952 44.657 70.0369 44.5129 69.3701 44.3434L68.3613 44.0975L67.3097 43.9449L65.1639 43.6312L62.8813 43.5295C57.6826 43.441 52.54 44.6046 47.8946 46.9206L46.5866 47.4886C46.1848 47.692 45.8172 47.9124 45.4752 48.1074L43.6713 49.0908C42.6711 49.5741 42.0898 49.8284 42.0299 49.7436Z" fill="#E0E0E0"/>
<path d="M89.4518 34.9078C89.4518 35.3062 77.6369 35.3401 63.0862 34.9925C48.5356 34.645 36.7378 34.0346 36.7549 33.6361C36.772 33.2377 48.5613 33.2038 63.1204 33.5514C77.6796 33.8989 89.4603 34.5093 89.4518 34.9078Z" fill="#E0E0E0"/>
<path d="M61.8897 59.7727C61.4879 59.7727 61.4451 48.0566 61.8042 33.6361C62.1632 19.2157 62.7617 7.51655 63.1635 7.52503C63.5653 7.53351 63.5995 19.2411 63.249 33.67C62.8985 48.099 62.2829 59.7811 61.8897 59.7727Z" fill="#E0E0E0"/>
<path d="M61.8894 59.7303C61.7868 59.8829 58.8801 57.933 55.5288 53.5077C53.574 50.9108 51.9916 48.0578 50.8268 45.0301C49.404 41.3029 48.7106 37.341 48.7835 33.3564C48.8803 29.3533 49.7843 25.41 51.4423 21.759C52.7778 18.8076 54.5027 16.0451 56.5718 13.5441C60.1197 9.30533 63.052 7.40635 63.1461 7.55894C63.2401 7.71154 60.6412 9.85638 57.384 14.1715C55.4838 16.6768 53.8963 19.401 52.6563 22.2846C51.148 25.7896 50.3241 29.5467 50.2283 33.3564C50.1628 37.1772 50.7882 40.9787 52.0749 44.5808C53.1461 47.5288 54.5819 50.3337 56.3495 52.9312C59.4614 57.382 62.0261 59.5692 61.8894 59.7303Z" fill="#E0E0E0"/>
<path d="M63.7358 7.53351C63.8384 7.38091 66.7451 9.33924 70.0963 13.7561C72.051 16.3545 73.636 19.2071 74.8069 22.2337C76.226 25.9764 76.9164 29.952 76.8416 33.9498C76.7437 37.95 75.8397 41.8903 74.1828 45.5387C72.8488 48.4935 71.1238 51.2589 69.0533 53.762C65.5054 58.0008 62.5731 59.8998 62.479 59.7472C62.385 59.5946 64.9839 57.4413 68.2412 53.1347C70.143 50.6259 71.7332 47.899 72.9774 45.0131C74.4886 41.4997 75.3154 37.7343 75.4139 33.9159C75.4794 30.0951 74.854 26.2935 73.5673 22.6915C72.4944 19.7442 71.0587 16.9395 69.2927 14.341C66.2236 9.89029 63.6075 7.69459 63.7358 7.53351Z" fill="#E0E0E0"/>
<path d="M228.093 35.0519C228.617 34.8168 229.068 34.4482 229.401 33.9837C229.785 33.4114 229.963 32.7273 229.906 32.0423C229.855 31.6206 229.749 31.2073 229.589 30.8131L229.077 29.3804L222.887 12.1623C222.246 10.3566 221.57 8.45757 220.861 6.48228C220.51 5.4904 220.151 4.48156 219.792 3.45576C219.636 2.94245 219.436 2.44329 219.194 1.9637C218.917 1.52164 218.52 1.16607 218.048 0.937908C217.568 0.706546 217.027 0.629494 216.501 0.717491C215.952 0.864828 215.413 1.04315 214.885 1.25158L211.525 2.48084L204.498 5.02413L173.165 16.452C172.539 16.6976 172.026 17.164 171.724 17.7615C171.423 18.3591 171.355 19.046 171.532 19.6904C172.011 21.0468 172.481 22.4033 172.951 23.7427C173.898 26.4386 174.832 29.0949 175.756 31.7117L181.047 46.768C181.261 47.3699 181.475 47.9633 181.68 48.5568C181.846 49.1145 182.18 49.6086 182.638 49.9725C183.087 50.3229 183.639 50.5193 184.211 50.532C184.803 50.4997 185.383 50.3558 185.921 50.1082L192.555 47.709L204.472 43.4193L221.741 37.2476L226.443 35.5521L227.674 35.1367C227.813 35.082 227.956 35.0395 228.102 35.0095C227.969 35.0781 227.832 35.1376 227.692 35.1875L226.486 35.6538L221.818 37.4002L204.609 43.7415L192.708 48.0905L186.083 50.5066L185.228 50.8203C184.911 50.9258 184.579 50.9774 184.245 50.9729C183.566 50.9565 182.909 50.7247 182.373 50.3116C181.841 49.8908 181.451 49.3204 181.253 48.6754C181.039 48.082 180.834 47.4886 180.62 46.8867L175.294 31.8389C174.371 29.2278 173.433 26.5743 172.481 23.8784L171.036 19.7922C170.823 19.0184 170.905 18.1935 171.268 17.4766C171.631 16.7596 172.249 16.2013 173.003 15.9094L204.318 4.56634L211.354 2.02305L214.731 0.802266C215.286 0.576515 215.858 0.39232 216.441 0.251222C217.058 0.153845 217.69 0.245529 218.253 0.514027C218.802 0.781422 219.262 1.1992 219.578 1.71785C219.838 2.22311 220.049 2.75095 220.211 3.29469C220.57 4.32048 220.921 5.32932 221.271 6.3212C221.967 8.30497 222.631 10.2068 223.263 12.0266L229.248 29.2362C229.427 29.7449 229.589 30.2196 229.743 30.6774C229.916 31.0948 230.029 31.5343 230.077 31.983C230.135 32.7006 229.935 33.4155 229.513 34.0007C229.255 34.3576 228.915 34.6482 228.521 34.8484C228.389 34.9364 228.245 35.0049 228.093 35.0519Z" fill="#E0E0E0"/>
<path d="M201.335 22.0557L208.43 23.446L203.771 29.0497L199.112 34.645L196.675 27.6594L194.239 20.6738L201.335 22.0557Z" fill="#E0E0E0"/>
<path d="M331.145 85.9177C329.949 85.2246 328.625 84.7787 327.251 84.6068C325.877 84.4349 324.483 84.5405 323.151 84.9173C320.492 85.6891 318.047 87.0551 316.004 88.9103C311.96 92.3607 309.233 97.8287 307.558 102.856C313.294 104.34 319.526 101.381 322.544 99.6853C327.366 96.9979 334.436 89.2494 331.145 85.9177Z" fill="#FF725E"/>
<path d="M297.393 103.466C298.818 102.867 300.059 101.906 300.989 100.68C301.92 99.453 302.508 98.0047 302.693 96.4808C302.847 94.9564 302.694 93.4171 302.243 91.9517C301.792 90.4864 301.053 89.1242 300.069 87.9438C299.214 86.8417 297.966 85.816 296.546 85.799C295.878 85.835 295.232 86.0463 294.673 86.4112C294.114 86.7761 293.663 87.2816 293.366 87.876C292.798 89.0793 292.556 90.409 292.665 91.7333C292.836 96.2604 293.845 100.609 297.393 103.466Z" fill="#FF725E"/>
<g opacity="0.4">
<path d="M297.393 103.466C298.818 102.867 300.059 101.906 300.989 100.68C301.92 99.453 302.508 98.0047 302.693 96.4808C302.847 94.9564 302.694 93.4171 302.243 91.9517C301.792 90.4864 301.053 89.1242 300.069 87.9438C299.214 86.8417 297.966 85.816 296.546 85.799C295.878 85.835 295.232 86.0463 294.673 86.4112C294.114 86.7761 293.663 87.2816 293.366 87.876C292.798 89.0793 292.556 90.409 292.665 91.7333C292.836 96.2604 293.845 100.609 297.393 103.466Z" fill="white"/>
</g>
<path d="M287.185 117.285C287.479 117.066 287.751 116.819 287.997 116.547L290.125 114.462C292.551 112.217 294.598 109.601 296.187 106.713C297.74 103.776 298.475 100.481 298.316 97.1675C298.252 96.1716 298.068 95.1869 297.768 94.2342C297.691 93.9741 297.597 93.7192 297.486 93.4713C297.418 93.2961 297.375 93.2113 297.358 93.2169C297.722 94.5128 297.951 95.8423 298.042 97.1844C298.109 100.426 297.353 103.633 295.845 106.51C294.265 109.36 292.271 111.965 289.929 114.241C289.074 115.149 288.356 115.886 287.886 116.412C287.627 116.682 287.392 116.974 287.185 117.285Z" fill="#263238"/>
<path d="M325.237 91.3179C325.088 91.3788 324.945 91.4525 324.81 91.5384L323.638 92.2335C322.621 92.8439 321.159 93.751 319.364 94.8785C315.773 97.1421 310.857 100.338 305.514 103.984C300.171 107.629 295.418 111.045 291.998 113.563C290.288 114.826 288.912 115.852 287.971 116.581L286.903 117.429C286.77 117.521 286.647 117.626 286.535 117.743C286.681 117.674 286.819 117.588 286.946 117.488L288.065 116.708L292.152 113.792C295.572 111.334 300.393 107.96 305.737 104.314C311.08 100.669 315.996 97.4388 319.518 95.1159L323.724 92.3692L324.861 91.6147C324.993 91.525 325.119 91.4258 325.237 91.3179Z" fill="#263238"/>
<path d="M299.085 111.605C302.045 110.25 305.288 109.614 308.546 109.749C311.803 109.885 314.981 110.788 317.816 112.385C319.244 113.233 320.732 114.547 320.501 116.174C320.27 117.802 318.475 118.718 316.859 119.057C313.473 119.773 309.948 119.478 306.731 118.211C303.513 116.944 300.746 114.76 298.777 111.936" fill="#FF725E"/>
<path d="M313.251 114.606C312.986 114.395 312.699 114.21 312.396 114.055C312.106 113.894 311.755 113.69 311.319 113.495C310.84 113.259 310.35 113.046 309.849 112.86C309.245 112.621 308.628 112.415 308.002 112.241C307.283 112.026 306.552 111.85 305.814 111.715C304.121 111.42 302.4 111.315 300.684 111.401C298.967 111.514 297.269 111.821 295.623 112.317C294.91 112.542 294.21 112.808 293.529 113.114C292.943 113.364 292.372 113.647 291.819 113.962C291.289 114.224 290.853 114.555 290.451 114.809C290.109 115.023 289.78 115.258 289.468 115.513C289.186 115.713 288.923 115.937 288.681 116.183C288.732 116.251 289.869 115.335 291.947 114.208C292.516 113.895 293.101 113.612 293.699 113.36C294.332 113.08 295.033 112.86 295.777 112.614C299.022 111.647 302.451 111.447 305.788 112.029C306.515 112.143 307.235 112.301 307.942 112.504C308.567 112.662 309.184 112.851 309.789 113.072C311.943 113.894 313.209 114.674 313.251 114.606Z" fill="#263238"/>
<path d="M73.9095 209.098C88.7508 196.924 90.6658 176.399 88.5542 158.232C88.2037 155.197 88.2806 151.975 86.605 149.424C84.9293 146.872 81.3815 145.329 78.7398 146.829C76.5512 148.076 75.7732 150.78 74.6789 153.052C73.2155 156.083 70.9189 158.642 68.0533 160.436C66.1896 161.589 63.7788 162.403 61.8125 161.504C59.0511 160.267 58.4441 156.672 58.2133 153.654C57.7915 148.002 57.3669 142.37 56.9395 136.758C56.7086 133.732 56.4693 130.646 55.2895 127.857C54.1097 125.067 51.7929 122.575 48.8263 121.998C45.8598 121.422 42.4145 123.372 42.0469 126.381C42.0359 127.64 42.1102 128.897 42.2691 130.145C42.2691 131.409 41.8075 132.841 40.6363 133.291C39.465 133.74 38.1656 132.985 37.2166 132.172C33.7969 129.374 31.369 125.618 29.0522 121.871C26.7353 118.124 24.4784 114.284 21.3579 111.181C18.2375 108.078 14.0741 105.772 9.68837 105.874C5.30266 105.976 0.874205 109.028 0.12188 113.36C-0.630444 117.692 2.22497 121.837 5.25136 125.059C9.71547 129.845 14.8522 133.968 20.503 137.301C21.5876 137.785 22.4866 138.603 23.0678 139.632C23.9227 141.59 22.1359 143.744 20.1867 144.574C17.9725 145.507 15.4932 145.465 13.1422 145.939C10.7912 146.414 8.30341 147.635 7.58528 149.949C6.58503 153.137 9.45754 156.163 12.1933 158.079C17.673 161.913 23.7782 164.78 30.2405 166.557C32.5488 167.193 34.9596 167.71 36.9003 169.1C38.8409 170.491 40.149 173.144 39.2256 175.365C38.3023 177.586 35.5239 178.536 33.1301 178.324C30.7363 178.112 28.5478 176.984 26.2395 176.323C21.9649 175.094 16.5448 175.814 14.151 179.621C12.5865 182.122 12.6977 185.42 13.8176 188.158C15.0671 190.845 16.846 193.258 19.0497 195.254C26.3297 202.621 35.4518 207.94 45.4836 210.666C55.469 213.209 64.5396 213.404 73.9095 209.123" fill="#FF725E"/>
<g opacity="0.2">
<path d="M73.9095 209.098C88.7508 196.924 90.6658 176.399 88.5542 158.232C88.2037 155.197 88.2806 151.975 86.605 149.424C84.9293 146.872 81.3815 145.329 78.7398 146.829C76.5512 148.076 75.7732 150.78 74.6789 153.052C73.2155 156.083 70.9189 158.642 68.0533 160.436C66.1896 161.589 63.7788 162.403 61.8125 161.504C59.0511 160.267 58.4441 156.672 58.2133 153.654C57.7915 148.002 57.3669 142.37 56.9395 136.758C56.7086 133.732 56.4693 130.646 55.2895 127.857C54.1097 125.067 51.7929 122.575 48.8263 121.998C45.8598 121.422 42.4145 123.372 42.0469 126.381C42.0359 127.64 42.1102 128.897 42.2691 130.145C42.2691 131.409 41.8075 132.841 40.6363 133.291C39.465 133.74 38.1656 132.985 37.2166 132.172C33.7969 129.374 31.369 125.618 29.0522 121.871C26.7353 118.124 24.4784 114.284 21.3579 111.181C18.2375 108.078 14.0741 105.772 9.68837 105.874C5.30266 105.976 0.874205 109.028 0.12188 113.36C-0.630444 117.692 2.22497 121.837 5.25136 125.059C9.71547 129.845 14.8522 133.968 20.503 137.301C21.5876 137.785 22.4866 138.603 23.0678 139.632C23.9227 141.59 22.1359 143.744 20.1867 144.574C17.9725 145.507 15.4932 145.465 13.1422 145.939C10.7912 146.414 8.30341 147.635 7.58528 149.949C6.58503 153.137 9.45754 156.163 12.1933 158.079C17.673 161.913 23.7782 164.78 30.2405 166.557C32.5488 167.193 34.9596 167.71 36.9003 169.1C38.8409 170.491 40.149 173.144 39.2256 175.365C38.3023 177.586 35.5239 178.536 33.1301 178.324C30.7363 178.112 28.5478 176.984 26.2395 176.323C21.9649 175.094 16.5448 175.814 14.151 179.621C12.5865 182.122 12.6977 185.42 13.8176 188.158C15.0671 190.845 16.846 193.258 19.0497 195.254C26.3297 202.621 35.4518 207.94 45.4836 210.666C55.469 213.209 64.5396 213.404 73.9095 209.123" fill="white"/>
</g>
<path d="M75.2519 222.569C73.7075 214.201 71.3571 205.999 68.2331 198.077C64.3757 188.424 59.9628 178.998 55.0161 169.846L51.169 162.615C49.8951 160.241 48.6042 157.893 47.262 155.672C44.6185 151.403 41.7357 147.285 38.6274 143.337C35.695 139.539 32.7627 136.046 30.0013 132.807C27.2399 129.569 24.5982 126.593 22.0762 123.982C18.1127 119.848 13.8247 116.033 9.25253 112.571C7.63674 111.342 6.35437 110.435 5.48236 109.833L4.47356 109.146C4.36656 109.061 4.24872 108.99 4.12305 108.934C4.22048 109.031 4.32633 109.119 4.43936 109.197L5.41397 109.918C6.26888 110.554 7.5256 111.495 9.11574 112.741C13.6217 116.261 17.8541 120.112 21.777 124.262C24.2734 126.882 26.9065 129.857 29.6337 133.104C32.3609 136.351 35.2847 139.886 38.1828 143.65C41.2566 147.596 44.1106 151.705 46.732 155.96C48.0998 158.173 49.2967 160.504 50.6133 162.878L54.4604 170.109C59.396 179.257 63.8142 188.671 67.6945 198.306C70.843 206.176 73.2387 214.322 74.8501 222.636" fill="#263238"/>
<path d="M47.0996 155.621C47.2181 155.192 47.2841 154.751 47.2962 154.307C47.3902 153.459 47.4757 152.23 47.5698 150.704C47.7493 147.66 47.8605 143.455 47.963 138.835C48.0656 134.215 48.2452 129.993 48.4674 126.966C48.5786 125.449 48.6812 124.22 48.7667 123.38C48.8393 122.941 48.8594 122.494 48.8265 122.049C48.6895 122.471 48.5978 122.906 48.5529 123.346C48.399 124.194 48.2366 125.415 48.0742 126.924C47.7408 129.959 47.5099 134.172 47.4073 138.793C47.3048 143.413 47.2364 147.525 47.168 150.661C47.168 152.094 47.0996 153.298 47.0739 154.264C47.0374 154.716 47.046 155.171 47.0996 155.621Z" fill="#263238"/>
<path d="M7.31152 151.509C7.83255 151.581 8.35954 151.601 8.88457 151.568C9.90191 151.568 11.3638 151.568 13.1591 151.645C16.7754 151.738 21.7681 152.043 27.2652 152.62C32.7623 153.196 37.7123 153.942 41.2773 154.586C43.0555 154.892 44.5003 155.18 45.492 155.366C46.0025 155.494 46.523 155.579 47.0479 155.621C46.5633 155.416 46.0592 155.26 45.5433 155.154C44.5601 154.9 43.1239 154.553 41.3456 154.188C37.7892 153.45 32.7965 152.645 27.3165 152.06C22.6151 151.537 17.8898 151.254 13.1591 151.212C11.3467 151.212 9.87627 151.255 8.88457 151.323C8.35558 151.337 7.82904 151.4 7.31152 151.509Z" fill="#263238"/>
<path d="M67.6943 197.399C67.7924 197.245 67.87 197.08 67.9252 196.907L68.4809 195.449C68.9596 194.177 69.5922 192.32 70.3617 190.023C71.8834 185.42 73.7813 179.002 75.7904 171.881C77.7994 164.76 79.646 158.317 81.0652 153.713C81.7662 151.458 82.3476 149.61 82.775 148.237C82.9546 147.643 83.1084 147.152 83.2281 146.745C83.2953 146.573 83.3385 146.394 83.3564 146.211C83.3564 146.211 83.2538 146.372 83.1255 146.711C82.9973 147.05 82.7921 147.559 82.5698 148.169C82.0911 149.432 81.4499 151.289 80.689 153.586C79.1673 158.189 77.2694 164.607 75.2518 171.728C73.2342 178.849 71.4047 185.292 69.977 189.896L68.2671 195.372C68.0791 195.974 67.9337 196.466 67.8055 196.864C67.7467 197.037 67.7094 197.217 67.6943 197.399Z" fill="#263238"/>
<path d="M14.2876 184.953C14.4576 185.036 14.6391 185.093 14.8262 185.123L16.3736 185.504L22.093 186.852C26.9232 187.98 33.5745 189.625 40.9011 191.447C48.2277 193.27 54.9217 194.838 59.7776 195.898C62.2055 196.415 64.1718 196.814 65.5397 197.068L67.1127 197.339C67.2945 197.383 67.4814 197.403 67.6684 197.399C67.5 197.319 67.3218 197.262 67.1384 197.229L65.5824 196.847L59.8631 195.508C55.0328 194.372 48.3816 192.727 41.055 190.905C33.7283 189.082 27.0344 187.514 22.187 186.462C19.759 185.945 17.7842 185.538 16.4249 185.292L14.8433 185.013C14.6607 184.974 14.4744 184.954 14.2876 184.953Z" fill="#263238"/>
<path d="M90.6654 50.159C90.6654 50.159 94.162 139.471 94.8203 195.372C95.4444 248.849 77.4142 308.269 79.979 326.979L296.76 338C296.76 338 286.68 199.815 290.527 156.155C294.203 114.53 294.178 45.4879 294.178 45.4879L90.6654 50.159Z" fill="#E0E0E0"/>
<path d="M82.108 47.2597C82.108 47.2597 85.6901 136.572 86.3826 192.473C87.0238 245.95 77.3974 310.761 80.0391 329.472L290.032 322.249C290.032 322.249 282.38 196.949 286.313 153.306C290.057 111.681 290.015 43.4024 290.015 43.4024L82.108 47.2597Z" fill="#EBEBEB"/>
<path d="M79.372 47.2682C79.372 47.2682 74.0886 145.609 74.7725 201.51C75.4308 254.979 77.3373 310.761 80.0302 329.471L284.303 331.277C284.303 331.277 276.43 205.978 280.465 162.335C284.303 120.676 284.303 46.6323 284.303 46.6323L79.372 47.2682Z" fill="#FAFAFA"/>
<path d="M284.757 331.701L79.6629 329.895L79.603 329.531C76.6365 309.108 74.9181 247.806 74.3453 201.519C73.6614 146.244 78.8935 48.2431 78.9448 47.2258V46.8273L284.714 46.183V46.6069C284.714 47.3444 284.714 121.21 280.875 162.352C276.883 205.461 284.637 329.972 284.714 331.226L284.757 331.701ZM80.4323 329.048L283.902 330.845C283.389 322.503 276.208 204.155 280.097 162.293C283.756 122.795 283.919 53.1686 283.927 47.0562L79.8253 47.692C79.4577 54.6183 74.5933 148.05 75.2515 201.502C75.773 247.501 77.4743 308.32 80.3981 329.048H80.4323Z" fill="#263238"/>
<path d="M177.226 105.594H93.1533V186.259H177.226V105.594Z" fill="#FF725E"/>
<g opacity="0.3">
<path d="M99.668 179.35L122.93 137.843L141.952 164.378L153.51 150.288L170.711 179.35H99.668Z" fill="black"/>
</g>
<g opacity="0.3">
<path d="M150.082 129.772C150.082 130.96 149.727 132.12 149.062 133.107C148.397 134.094 147.452 134.863 146.346 135.318C145.24 135.772 144.023 135.891 142.849 135.659C141.674 135.428 140.596 134.856 139.749 134.017C138.903 133.177 138.326 132.108 138.093 130.943C137.859 129.779 137.979 128.572 138.437 127.476C138.895 126.379 139.671 125.441 140.667 124.782C141.662 124.122 142.832 123.77 144.029 123.77C145.635 123.77 147.174 124.403 148.309 125.528C149.444 126.654 150.082 128.181 150.082 129.772Z" fill="black"/>
</g>
<g opacity="0.3">
<path d="M170.711 179.579C170.701 179.469 170.701 179.358 170.711 179.248C170.711 179.002 170.711 178.697 170.711 178.307C170.711 177.459 170.711 176.238 170.711 174.678C170.711 171.474 170.66 166.854 170.617 160.979C170.574 149.195 170.514 132.417 170.446 112.275L170.788 112.614L99.7531 112.673L100.146 112.283V130.391C100.146 136.326 100.146 142.124 100.146 147.77C100.146 159.071 100.146 169.753 100.104 179.579L99.7531 179.231L151.116 179.409L165.607 179.494L169.446 179.536H170.446H170.796H170.48H169.523L165.753 179.579L151.339 179.672L99.7531 179.85H99.4112V179.502C99.4112 169.677 99.4112 158.995 99.4112 147.694C99.4112 142.048 99.4112 136.241 99.4112 130.315V112.283C99.0521 112.631 99.8899 111.791 99.813 111.876L170.848 111.936H171.19V112.275C171.113 132.511 171.053 149.356 171.01 161.191C171.01 167.032 170.942 171.635 170.925 174.814C170.925 176.349 170.925 177.535 170.882 178.383C170.882 178.756 170.882 179.053 170.882 179.282C170.834 179.386 170.777 179.485 170.711 179.579Z" fill="black"/>
</g>
<path d="M256.775 260.057H198.975V315.509H256.775V260.057Z" fill="#FF725E"/>
<g opacity="0.4">
<path d="M203.455 310.761L219.441 282.226L232.522 300.461L240.464 290.78L252.287 310.761H203.455Z" fill="black"/>
</g>
<g opacity="0.4">
<path d="M238.087 276.664C238.089 277.482 237.846 278.281 237.389 278.961C236.932 279.642 236.282 280.172 235.521 280.486C234.76 280.799 233.922 280.882 233.114 280.723C232.305 280.563 231.562 280.17 230.98 279.592C230.397 279.014 230 278.278 229.84 277.476C229.679 276.675 229.763 275.844 230.079 275.089C230.395 274.334 230.93 273.69 231.616 273.237C232.302 272.783 233.108 272.543 233.932 272.544C235.034 272.544 236.091 272.978 236.87 273.751C237.649 274.524 238.087 275.572 238.087 276.664Z" fill="black"/>
</g>
<g opacity="0.4">
<path d="M252.287 310.914C252.287 310.914 252.287 310.838 252.287 310.685C252.287 310.532 252.287 310.312 252.287 310.041C252.287 309.476 252.287 308.645 252.287 307.548C252.287 305.344 252.287 302.165 252.227 298.13C252.227 290.025 252.159 278.496 252.108 264.643L252.338 264.88H203.506L203.779 264.609V277.063C203.779 281.132 203.779 285.125 203.779 289.008C203.779 296.773 203.779 304.115 203.779 310.872L203.54 310.634L238.848 310.753L248.808 310.821H251.449H252.133H252.373C252.302 310.83 252.23 310.83 252.159 310.821H251.501H248.936L239.027 310.88L203.566 310.999H203.326V310.761C203.326 303.979 203.326 296.663 203.326 288.898C203.326 285.015 203.326 281.022 203.326 276.953V264.652L203.6 264.372L252.432 264.414H252.672V264.643C252.621 278.555 252.578 290.144 252.552 298.274C252.552 302.292 252.501 305.454 252.492 307.642C252.492 308.693 252.492 309.515 252.492 310.092C252.492 310.354 252.492 310.558 252.492 310.71C252.492 310.863 252.296 310.922 252.287 310.914Z" fill="black"/>
</g>
<path d="M129.427 69.7508V83.1455H128.248L119.57 72.2772V83.1455H118.143V69.7508H119.305L128.008 80.6192V69.7508H129.427Z" fill="#263238"/>
<path d="M143.38 81.9162V83.1455H133.839V69.7508H143.098V70.9716H135.267V75.7445H142.251V76.9568H135.267V81.9247L143.38 81.9162Z" fill="#263238"/>
<path d="M165.086 69.7508L160.529 83.1455H159.024L155.075 71.7176L151.099 83.1455H149.612L145.055 69.7508H146.526L150.424 81.2719L154.451 69.7508H155.784L159.76 81.3228L163.761 69.7508H165.086Z" fill="#263238"/>
<path d="M166.402 81.5178L166.958 80.4242C168.189 81.4943 169.776 82.0742 171.412 82.0519C173.977 82.0519 175.046 81.0006 175.046 79.6781C175.046 76.0073 166.727 78.2624 166.727 73.3114C166.727 71.3362 168.266 69.6321 171.703 69.6321C173.186 69.6144 174.642 70.0269 175.892 70.819L175.413 71.955C174.309 71.2413 173.021 70.856 171.703 70.8444C169.232 70.8444 168.138 71.9296 168.138 73.2691C168.138 76.9483 176.448 74.7272 176.448 79.6018C176.448 81.5771 174.866 83.2557 171.412 83.2557C169.581 83.321 167.793 82.7005 166.402 81.5178Z" fill="#263238"/>
<path d="M190.135 74.3457C190.135 77.1942 188.049 78.9152 184.612 78.9152H180.987V83.154H179.56V69.7593H184.612C188.049 69.7508 190.135 71.5057 190.135 74.3457ZM188.707 74.3457C188.707 72.2009 187.279 70.9547 184.578 70.9547H180.987V77.652H184.578C187.279 77.6689 188.707 76.4482 188.707 74.3457Z" fill="#263238"/>
<path d="M201.009 79.5679H193.486L191.87 83.1455H190.383L196.555 69.7508H197.957L204.13 83.1455H202.625L201.009 79.5679ZM200.496 78.415L197.248 71.2259L194.008 78.415H200.496Z" fill="#263238"/>
<path d="M216.954 74.3457C216.954 77.1942 214.868 78.9152 211.431 78.9152H207.806V83.154H206.378V69.7593H211.431C214.868 69.7508 216.954 71.5057 216.954 74.3457ZM215.526 74.3457C215.526 72.2009 214.098 70.9547 211.397 70.9547H207.806V77.652H211.397C214.098 77.6689 215.526 76.4482 215.526 74.3457Z" fill="#263238"/>
<path d="M229.589 81.9162V83.1455H220.04V69.7508H229.299V70.9716H221.468V75.7445H228.452V76.9568H221.468V81.9247L229.589 81.9162Z" fill="#263238"/>
<path d="M242.173 83.1455L239.087 78.8388C238.736 78.8388 238.386 78.8982 238.001 78.8982H234.376V83.137H232.949V69.7424H238.001C241.421 69.7424 243.524 71.4379 243.524 74.3372C243.579 75.2878 243.302 76.228 242.74 76.9999C242.178 77.7718 241.365 78.3284 240.438 78.576L243.738 83.1709L242.173 83.1455ZM242.096 74.3457C242.096 72.2009 240.669 70.9547 237.967 70.9547H234.376V77.6774H237.967C240.703 77.6944 242.096 76.4482 242.096 74.3457Z" fill="#263238"/>
<path d="M271.95 89.563H271.48H270.112L264.837 89.6732L245.431 89.9954L181.415 90.8856L117.382 91.6485L97.9752 91.8266H92.7004L97.9752 91.7164L117.373 91.3942L181.406 90.5041L245.431 89.7411L264.829 89.563H270.112H271.48C271.788 89.5461 271.95 89.563 271.95 89.563Z" fill="#263238"/>
<path d="M267.83 60.4085C267.83 60.4085 267.676 60.4085 267.368 60.4085H265.992L260.717 60.5187L241.31 60.8408L177.294 61.6886L113.261 62.4516L93.8631 62.6296H88.5883H87.2119C86.9041 62.6296 86.7417 62.6296 86.7417 62.6296H87.2119H88.5798L93.8546 62.5194L113.261 62.1973L177.286 61.3495L241.31 60.5865L260.717 60.4085H265.992H267.359C267.676 60.3915 267.83 60.4085 267.83 60.4085Z" fill="#263238"/>
<path d="M263.846 112.936C263.846 113.055 248.261 113.156 229.042 113.156C209.824 113.156 194.23 113.055 194.23 112.936C194.23 112.817 209.806 112.715 229.042 112.715C248.278 112.715 263.846 112.817 263.846 112.936Z" fill="#263238"/>
<path d="M263.846 123.991C263.846 124.109 248.261 124.211 229.042 124.211C209.824 124.211 194.23 124.109 194.23 123.991C194.23 123.872 209.806 123.77 229.042 123.77C248.278 123.77 263.846 123.864 263.846 123.991Z" fill="#263238"/>
<path d="M263.846 135.088C263.846 135.207 248.261 135.308 229.042 135.308C209.824 135.308 194.23 135.207 194.23 135.088C194.23 134.969 209.806 134.868 229.042 134.868C248.278 134.868 263.846 134.918 263.846 135.088Z" fill="#263238"/>
<path d="M263.846 146.109C263.846 146.236 248.261 146.329 229.042 146.329C209.824 146.329 194.23 146.236 194.23 146.109C194.23 145.982 209.806 145.888 229.042 145.888C248.278 145.888 263.846 145.973 263.846 146.109Z" fill="#263238"/>
<path d="M263.846 157.13C263.846 157.257 248.261 157.35 229.042 157.35C209.824 157.35 194.23 157.257 194.23 157.13C194.23 157.003 209.806 156.909 229.042 156.909C248.278 156.909 263.846 157.028 263.846 157.13Z" fill="#263238"/>
<path d="M172.763 250.977C172.763 251.096 157.178 251.198 137.96 251.198C118.741 251.198 103.147 251.096 103.147 250.977C103.147 250.858 118.724 250.757 137.96 250.757C157.195 250.757 172.763 250.858 172.763 250.977Z" fill="#263238"/>
<path d="M172.763 264.372C172.763 264.49 157.178 264.592 137.96 264.592C118.741 264.592 103.147 264.49 103.147 264.372C103.147 264.253 118.724 264.151 137.96 264.151C157.195 264.151 172.763 264.245 172.763 264.372Z" fill="#263238"/>
<path d="M172.763 277.758C172.763 277.885 157.178 277.978 137.96 277.978C118.741 277.978 103.147 277.885 103.147 277.758C103.147 277.631 118.724 277.538 137.96 277.538C157.195 277.538 172.763 277.639 172.763 277.758Z" fill="#263238"/>
<path d="M172.763 291.153C172.763 291.271 157.178 291.373 137.96 291.373C118.741 291.373 103.147 291.271 103.147 291.153C103.147 291.034 118.724 290.932 137.96 290.932C157.195 290.932 172.763 291.025 172.763 291.153Z" fill="#263238"/>
<path d="M144.465 305.556C144.465 305.675 135.215 305.777 123.802 305.777C112.389 305.777 103.147 305.675 103.147 305.556C103.147 305.437 112.389 305.336 123.802 305.336C135.215 305.336 144.465 305.429 144.465 305.556Z" fill="#263238"/>
<path d="M231.641 168.202C231.154 168.271 230.662 168.299 230.171 168.286L226.161 168.354C222.741 168.354 218.099 168.422 212.935 168.422C207.772 168.422 203.087 168.422 199.701 168.354L195.692 168.286C195.203 168.299 194.714 168.271 194.23 168.202C194.714 168.133 195.203 168.104 195.692 168.117L199.701 168.049C203.121 168.049 207.772 167.981 212.935 167.981C218.099 167.981 222.776 167.981 226.161 168.049L230.171 168.117C230.662 168.104 231.154 168.132 231.641 168.202Z" fill="#263238"/>
<path d="M267.205 237.667C267.205 237.786 229.888 237.888 183.868 237.888C137.848 237.888 100.497 237.744 100.497 237.667C100.497 237.591 137.806 237.447 183.834 237.447C229.863 237.447 267.205 237.506 267.205 237.667Z" fill="#263238"/>
<path d="M267.205 223.035C267.205 223.154 229.888 223.255 183.868 223.255C137.848 223.255 100.531 223.154 100.531 223.035C100.531 222.916 137.84 222.814 183.868 222.814C229.897 222.814 267.205 222.908 267.205 223.035Z" fill="#263238"/>
<path d="M267.205 210.683C267.205 210.802 229.888 210.903 183.868 210.903C137.848 210.903 100.531 210.802 100.531 210.683C100.531 210.564 137.84 210.463 183.868 210.463C229.897 210.463 267.205 210.539 267.205 210.683Z" fill="#263238"/>
<path d="M178.397 201.078C178.397 201.196 160.29 201.298 137.96 201.298C115.629 201.298 97.5137 201.196 97.5137 201.078C97.5137 200.959 115.621 200.857 137.96 200.857C160.299 200.857 178.397 200.951 178.397 201.078Z" fill="#FF725E"/>
<path d="M157.52 202.324C164.548 200.628 168.908 192.015 166.069 185.369C164.556 181.783 161.299 178.68 161.487 174.789C161.615 172.144 163.376 169.829 163.778 167.21C164.539 162.301 160.572 158.071 158.751 153.45C156.862 148.686 157.281 143.379 157.306 138.25C157.332 133.121 156.768 127.619 153.425 123.711L149.279 183.292L157.52 202.324Z" fill="#263238"/>
<path d="M110.671 111.037C104.575 114.742 100.335 120.947 97.8473 127.585C95.3595 134.223 94.3764 141.336 93.6326 148.389C91.6672 167.026 91.0073 185.775 91.6577 204.503C114.74 207.394 137.986 210.293 161.196 208.742C157.17 182.461 154.622 156.18 157.845 129.832" fill="#263238"/>
<path d="M162.385 199.696C162.385 199.696 162.667 199.781 163.24 199.789C164.037 199.783 164.811 199.528 165.454 199.06C166.483 198.342 167.21 197.274 167.497 196.059C167.782 194.425 167.565 192.745 166.873 191.235C166.198 189.54 165.052 187.844 164.043 185.869C163.502 184.854 163.094 183.774 162.829 182.656C162.599 181.457 162.562 180.23 162.718 179.019C163.195 176.472 163.991 173.995 165.086 171.643C166.078 169.176 167.138 166.557 167.181 163.759C167.102 161.034 166.242 158.387 164.701 156.129C163.316 153.857 161.718 151.806 160.427 149.686C158.506 146.539 157.238 143.044 156.697 139.404C156.157 135.765 156.355 132.055 157.281 128.492C157.485 127.719 157.733 126.957 158.025 126.212L158.247 125.627C158.273 125.56 158.304 125.494 158.341 125.432C158.336 125.505 158.319 125.577 158.29 125.644C158.29 125.805 158.178 126 158.102 126.237C157.922 126.754 157.708 127.526 157.452 128.535C156.78 131.386 156.555 134.322 156.785 137.241C157.117 141.57 158.485 145.758 160.777 149.458C162.06 151.543 163.658 153.586 165.052 155.892C166.445 158.198 167.677 160.851 167.617 163.776C167.557 166.701 166.48 169.346 165.479 171.813C164.391 174.128 163.598 176.569 163.12 179.078C162.959 180.245 162.988 181.43 163.205 182.588C163.452 183.673 163.84 184.722 164.359 185.708C165.334 187.649 166.488 189.37 167.155 191.134C167.852 192.699 168.054 194.437 167.736 196.118C167.419 197.383 166.639 198.486 165.548 199.213C164.871 199.683 164.057 199.918 163.231 199.882C163.019 199.871 162.81 199.834 162.607 199.772C162.529 199.761 162.453 199.735 162.385 199.696Z" fill="#263238"/>
<path d="M221.698 203.358C220.536 204.621 219.45 204.867 218.92 202.409C217.749 196.992 214.842 193.244 213.372 192.778C211.901 192.312 210.747 194.211 211.764 195.593C212.725 197.204 213.458 198.938 213.944 200.747C214.393 202.182 214.598 203.68 214.551 205.181C214.509 206.478 214.423 207.631 214.338 208.657C214.338 208.657 213.79 214.591 212.123 217.346L226.836 228.011L232.684 221.467C232.684 221.467 236.488 218.228 235.394 213.353C234.3 208.479 229.914 202.273 229.914 202.273C228.409 201.544 232.376 193.007 233.915 190.226C235.454 187.446 234.77 185.615 232.983 185.92C231.778 186.132 226.871 194.533 225.409 197.322C224.614 198.848 223.1 201.841 221.698 203.358Z" fill="#FFBE9D"/>
<path d="M155.785 289.381C151.51 277.198 152.741 275.427 152.109 271.069L149.313 288.872L162.496 329.378L110.996 329.675H67.7372L77.0301 277.427L67.3269 265.448L67.1217 270.535L37.7041 274.494C37.7041 274.494 51.2288 233.895 57.8373 216.27C64.4458 198.645 77.0301 192.846 77.0301 192.846C100.968 184.733 118.835 184.258 139.533 189.26C148.014 191.343 155.699 195.833 161.648 202.179C167.597 208.525 171.552 216.453 173.028 224.993C173.028 225.231 173.114 225.468 173.148 225.697L181.039 263.261L212.072 214.091L230.444 228.41L211.747 262.142L195.991 291.178C184.809 305.497 161.171 302.453 155.81 289.398" fill="#455A64"/>
<path d="M81.2446 233.912C81.1164 233.912 81.578 231.546 81.9114 228.63C82.2448 225.714 82.3389 223.332 82.4757 223.332C82.6696 225.112 82.6294 226.911 82.356 228.681C82.2178 230.465 81.8442 232.224 81.2446 233.912Z" fill="#263238"/>
<path d="M148.586 228.011C148.586 228.011 148.698 228.121 148.877 228.367L149.638 229.444C150.044 230.009 150.416 230.598 150.749 231.207C151.143 231.919 151.656 232.699 152.066 233.632C152.57 234.63 153.018 235.654 153.408 236.701C153.878 237.82 154.263 239.058 154.631 240.346C155.395 243.186 155.876 246.094 156.067 249.027C156.217 251.959 156.105 254.898 155.734 257.81C155.631 258.48 155.537 259.133 155.443 259.768C155.349 260.404 155.195 261.006 155.084 261.6C154.87 262.778 154.562 263.855 154.306 264.847C154.049 265.838 153.742 266.712 153.502 267.483C153.263 268.255 153.015 268.916 152.801 269.441L152.314 270.671C152.267 270.817 152.2 270.957 152.117 271.086C152.14 270.932 152.18 270.782 152.237 270.637C152.34 270.306 152.476 269.891 152.639 269.391C152.801 268.89 153.049 268.195 153.263 267.415C153.477 266.635 153.784 265.762 153.998 264.77C154.212 263.778 154.52 262.702 154.725 261.523C154.827 260.938 154.964 260.336 155.058 259.701C155.152 259.065 155.229 258.429 155.323 257.759C155.67 254.871 155.77 251.958 155.622 249.053C155.433 246.151 154.972 243.273 154.246 240.456C153.861 239.168 153.528 237.913 153.075 236.836C152.704 235.791 152.276 234.767 151.792 233.768C151.399 232.827 150.937 232.072 150.544 231.326C150.151 230.58 149.809 230.02 149.501 229.537L148.809 228.418C148.724 228.288 148.65 228.152 148.586 228.011Z" fill="#263238"/>
<path d="M180.68 276.444C180.516 274.034 180.496 271.616 180.62 269.204C180.605 266.788 180.734 264.374 181.005 261.973C181.179 264.382 181.199 266.8 181.065 269.213C181.091 271.629 180.962 274.044 180.68 276.444Z" fill="#263238"/>
<path d="M186.895 275.757C185.807 273.65 184.851 271.478 184.031 269.255C183.076 267.083 182.256 264.855 181.578 262.583C182.672 264.687 183.629 266.859 184.442 269.085C185.395 271.258 186.215 273.486 186.895 275.757Z" fill="#263238"/>
<path d="M153.793 302.394H153.57L152.929 302.335L151.895 302.233C151.424 302.175 150.949 302.158 150.476 302.182C147.448 302.173 144.435 302.604 141.533 303.462C137.84 304.446 133.591 306.107 128.709 307.523C126.163 308.302 123.536 308.797 120.878 308.998C118.004 309.225 115.113 308.859 112.389 307.921C109.718 306.883 107.143 305.615 104.695 304.132C102.444 302.766 100.082 301.59 97.6334 300.614C93.423 299.1 88.884 298.717 84.4762 299.503C82.7856 299.786 81.1294 300.243 79.5348 300.868C78.3265 301.328 77.1549 301.878 76.0297 302.513C75.1149 303.064 74.4054 303.496 73.9608 303.835L73.4308 304.2C73.3111 304.276 73.2512 304.318 73.2427 304.31C74.0807 303.585 74.9819 302.935 75.9357 302.369C77.0581 301.714 78.23 301.147 79.4408 300.673C81.0457 300.016 82.7165 299.53 84.425 299.223C88.8908 298.392 93.4992 298.752 97.7787 300.266C100.255 301.237 102.644 302.417 104.917 303.793C107.331 305.262 109.872 306.516 112.509 307.54C115.175 308.461 118.005 308.822 120.819 308.6C123.446 308.405 126.043 307.925 128.564 307.167C133.42 305.777 137.695 304.149 141.388 303.199C144.312 302.363 147.347 301.972 150.39 302.038C150.865 302.033 151.34 302.067 151.809 302.14L152.852 302.284L153.485 302.385C153.587 302.373 153.691 302.376 153.793 302.394Z" fill="#F5F5F5"/>
<path d="M151.168 270.306C150.938 270.359 150.703 270.391 150.467 270.399L149.612 270.476C149.279 270.518 148.903 270.628 148.475 270.713C146.089 271.354 143.849 272.442 141.875 273.918C140.593 274.808 139.242 275.867 137.789 276.995C136.252 278.227 134.651 279.379 132.993 280.445C131.159 281.626 129.135 282.486 127.008 282.989C125.865 283.233 124.698 283.35 123.529 283.336C122.331 283.308 121.138 283.175 119.964 282.938C115.202 281.954 111.098 279.793 107.379 277.987C104.125 276.269 100.663 274.97 97.0777 274.121C94.6683 273.57 92.1687 273.53 89.7425 274.002C89.0855 274.145 88.4398 274.335 87.8104 274.57C87.5941 274.66 87.3711 274.734 87.1436 274.791C87.3444 274.67 87.5562 274.568 87.7762 274.486C88.3967 274.212 89.0404 273.994 89.6997 273.833C92.1517 273.29 94.6941 273.29 97.146 273.833C100.756 274.648 104.244 275.921 107.525 277.622C111.252 279.411 115.347 281.547 120.015 282.505C121.164 282.735 122.331 282.865 123.503 282.895C124.637 282.909 125.769 282.801 126.88 282.573C128.979 282.084 130.977 281.241 132.787 280.081C134.437 279.031 136.032 277.899 137.566 276.69C139.028 275.571 140.396 274.528 141.704 273.638C143.723 272.168 146.016 271.111 148.449 270.527C148.885 270.45 149.304 270.365 149.604 270.332H150.458C150.694 270.31 150.931 270.302 151.168 270.306Z" fill="#F5F5F5"/>
<path d="M198.513 283.972C198.434 284.104 198.339 284.226 198.231 284.337C197.948 284.676 197.637 284.991 197.299 285.278C196.04 286.321 194.567 287.079 192.982 287.499C190.632 288.113 188.183 288.26 185.775 287.931C182.869 287.464 180.008 286.749 177.226 285.795C174.454 284.847 171.588 284.193 168.677 283.845C166.303 283.639 163.912 283.928 161.658 284.693C160.141 285.206 158.757 286.046 157.606 287.151C157.3 287.458 157.014 287.784 156.751 288.126C156.663 288.254 156.559 288.371 156.443 288.474C156.501 288.331 156.579 288.197 156.674 288.075C156.912 287.704 157.184 287.355 157.486 287.033C158.62 285.853 160.016 284.953 161.564 284.404C163.851 283.576 166.292 283.25 168.719 283.446C171.658 283.769 174.551 284.414 177.346 285.371C180.107 286.323 182.944 287.046 185.826 287.533C188.186 287.867 190.589 287.752 192.905 287.194C194.456 286.807 195.911 286.108 197.18 285.142C198.077 284.438 198.47 283.93 198.513 283.972Z" fill="#F5F5F5"/>
<path d="M213.226 259.277C213.226 259.277 213.158 259.362 212.996 259.497C212.763 259.698 212.507 259.871 212.235 260.014C211.209 260.533 210.068 260.787 208.918 260.752C207.224 260.691 205.561 260.281 204.036 259.548C202.326 258.768 200.556 257.649 198.616 256.725C196.995 255.878 195.194 255.43 193.362 255.419C191.531 255.407 189.723 255.832 188.092 256.657C186.748 257.368 185.527 258.286 184.476 259.378C184.476 259.378 184.527 259.277 184.647 259.107C184.83 258.863 185.03 258.631 185.245 258.412C186.032 257.599 186.944 256.915 187.947 256.386C189.443 255.587 191.097 255.122 192.794 255.021C194.869 254.938 196.93 255.387 198.778 256.327C200.753 257.268 202.489 258.395 204.173 259.175C205.644 259.906 207.249 260.336 208.892 260.438C210 260.502 211.108 260.305 212.123 259.862C212.859 259.531 213.201 259.234 213.226 259.277Z" fill="#F5F5F5"/>
<path d="M223.485 237.523C223.16 237.675 222.826 237.808 222.485 237.922C221.593 238.321 220.735 238.791 219.92 239.329C218.713 240.159 217.417 240.856 216.056 241.406C214.356 242.046 212.548 242.354 210.73 242.313C208.911 242.275 207.119 241.88 205.455 241.152C204.104 240.557 202.858 239.753 201.762 238.769C201.02 238.118 200.36 237.381 199.796 236.574C199.59 236.285 199.454 236.057 199.36 235.895C199.265 235.734 199.231 235.65 199.248 235.641C200.067 236.679 200.98 237.641 201.976 238.515C203.077 239.436 204.31 240.19 205.635 240.753C207.257 241.442 208.999 241.814 210.764 241.847C212.526 241.88 214.279 241.592 215.936 240.999C217.282 240.474 218.571 239.815 219.783 239.032C220.624 238.513 221.514 238.078 222.442 237.735C222.777 237.611 223.128 237.539 223.485 237.523Z" fill="#F5F5F5"/>
<path d="M178.697 252.707C178.697 252.749 178.346 252.639 177.731 252.647C176.853 252.677 175.994 252.903 175.217 253.309C174.076 253.953 173.002 254.708 172.011 255.564C170.741 256.612 169.265 257.389 167.677 257.844C164.773 258.675 161.669 258.477 158.897 257.285C158.068 256.929 157.287 256.474 156.571 255.928C156.303 255.735 156.059 255.51 155.845 255.258C156.845 255.935 157.907 256.517 159.016 256.996C161.74 258.074 164.747 258.223 167.566 257.42C170.917 256.572 172.943 253.927 175.097 253.029C175.921 252.629 176.832 252.439 177.748 252.478C177.994 252.488 178.239 252.531 178.474 252.605C178.62 252.656 178.705 252.69 178.697 252.707Z" fill="#F5F5F5"/>
<path d="M173.165 231.182C172.166 230.591 171.086 230.146 169.959 229.859C168.738 229.584 167.472 229.558 166.24 229.783C164.731 230.038 163.317 230.688 162.145 231.665C161.042 232.744 160.011 233.894 159.059 235.107C158.235 236.123 157.143 236.892 155.904 237.328C155.067 237.64 154.148 237.661 153.297 237.387C153.069 237.312 152.856 237.2 152.664 237.057C152.536 236.964 152.476 236.904 152.485 236.896C152.493 236.887 152.784 237.065 153.34 237.218C154.157 237.416 155.016 237.351 155.793 237.031C156.957 236.574 157.975 235.816 158.743 234.836C159.689 233.592 160.726 232.419 161.846 231.326C163.065 230.303 164.543 229.632 166.121 229.385C167.406 229.168 168.723 229.226 169.985 229.554C170.832 229.766 171.638 230.116 172.37 230.588C172.667 230.74 172.936 230.941 173.165 231.182Z" fill="#F5F5F5"/>
<path d="M105.225 253.063C105.225 253.02 105.935 253.292 107.251 253.495C109.114 253.753 111.009 253.669 112.842 253.249C115.563 252.612 118.173 251.577 120.588 250.18C123.358 248.688 126.273 246.789 129.607 245.204C132.75 243.738 136.132 242.842 139.593 242.559C142.41 242.319 145.248 242.473 148.022 243.017C149.888 243.396 151.71 243.964 153.459 244.712C154.083 244.958 154.545 245.212 154.861 245.365C155.028 245.433 155.186 245.522 155.332 245.628C155.332 245.628 154.639 245.348 153.4 244.873C151.638 244.204 149.818 243.699 147.962 243.364C145.213 242.869 142.409 242.746 139.627 243C136.219 243.302 132.892 244.194 129.795 245.636C126.504 247.171 123.589 249.087 120.785 250.57C118.33 251.967 115.675 252.985 112.911 253.588C111.037 253.986 109.105 254.023 107.217 253.698C106.708 253.607 106.208 253.474 105.721 253.3C105.546 253.244 105.379 253.164 105.225 253.063Z" fill="#F5F5F5"/>
<path d="M111.44 213.328C111.294 213.449 111.134 213.552 110.962 213.633C110.483 213.887 109.983 214.097 109.466 214.261C107.541 214.821 105.51 214.916 103.541 214.54C102.182 214.306 100.852 213.928 99.5742 213.413C98.1117 212.819 96.6845 212.142 95.2996 211.387C92.3844 209.818 89.2554 207.936 85.5878 206.927C83.8101 206.422 81.9856 206.096 80.142 205.952C79.2871 205.851 78.3723 205.876 77.5174 205.851C76.6625 205.825 75.8076 205.851 74.9954 205.986C72.0857 206.257 69.2314 206.948 66.5232 208.038C64.7045 208.789 62.9613 209.709 61.3168 210.785C60.7355 211.166 60.3165 211.505 60.0088 211.709C59.8649 211.829 59.707 211.931 59.5386 212.014C59.6624 211.873 59.8031 211.748 59.9575 211.641C60.2396 211.412 60.65 211.056 61.2228 210.641C62.8422 209.499 64.5788 208.53 66.4035 207.75C69.1279 206.607 72.0096 205.875 74.9527 205.579C75.8076 205.478 76.6625 205.469 77.5174 205.427C78.3723 205.384 79.2871 205.427 80.1933 205.52C82.0636 205.658 83.9144 205.987 85.716 206.503C89.452 207.529 92.6152 209.454 95.5048 211.022C96.8628 211.786 98.2644 212.471 99.7024 213.074C100.952 213.594 102.253 213.983 103.584 214.235C105.512 214.631 107.507 214.585 109.414 214.099C110.104 213.881 110.781 213.623 111.44 213.328Z" fill="#F5F5F5"/>
<path d="M170.079 215.625C170.079 215.625 170.002 215.719 169.814 215.863C169.551 216.074 169.264 216.253 168.959 216.397C167.774 216.91 166.469 217.087 165.189 216.906C163.298 216.652 161.494 215.961 159.923 214.888C158.11 213.76 156.349 212.234 154.28 210.997C152.341 209.824 150.156 209.111 147.894 208.911C146.048 208.736 144.186 208.876 142.388 209.327C140.739 209.793 139.156 210.465 137.678 211.327C137.678 211.327 137.763 211.234 137.951 211.098C138.224 210.888 138.509 210.696 138.806 210.522C139.895 209.868 141.069 209.363 142.294 209.021C144.127 208.52 146.034 208.345 147.928 208.504C150.255 208.694 152.505 209.416 154.502 210.615C156.614 211.887 158.367 213.421 160.136 214.549C161.652 215.602 163.388 216.303 165.215 216.6C166.448 216.801 167.713 216.676 168.882 216.236C169.669 215.931 170.053 215.625 170.079 215.625Z" fill="#F5F5F5"/>
<path d="M80.8344 235.802C80.408 235.804 79.9821 235.773 79.5605 235.709L76.1409 235.285L71.0114 234.598C69.0878 234.336 66.9848 234.056 64.762 233.963C62.6834 233.848 60.5988 234.01 58.5639 234.446C56.908 234.816 55.3232 235.449 53.8704 236.319C52.5474 237.158 51.3696 238.203 50.3823 239.414C50.4208 239.311 50.4725 239.214 50.5362 239.125C50.7005 238.857 50.8864 238.602 51.0919 238.362C51.833 237.462 52.7131 236.684 53.6994 236.057C55.1633 235.126 56.7765 234.449 58.4698 234.056C60.5403 233.586 62.6669 233.406 64.7876 233.522C66.8898 233.635 68.9844 233.858 71.0627 234.191L76.1922 234.971L79.6118 235.539C80.0275 235.584 80.4372 235.672 80.8344 235.802Z" fill="#F5F5F5"/>
<path d="M153.348 150.712C153.71 151.209 153.974 151.77 154.126 152.365C154.555 153.989 154.599 155.69 154.254 157.333C153.921 159.436 152.989 161.784 152.485 164.48C152.212 165.88 152.212 167.319 152.485 168.719C152.859 170.221 153.327 171.699 153.887 173.144C154.461 174.623 154.75 176.196 154.741 177.781C154.645 179.255 154.307 180.704 153.741 182.071C152.732 184.665 151.621 186.92 151.484 189.006C151.242 190.108 151.311 191.255 151.685 192.32C152.06 193.386 152.724 194.328 153.604 195.042C153.461 194.977 153.326 194.894 153.203 194.796C152.834 194.52 152.511 194.188 152.245 193.812C151.326 192.377 150.944 190.666 151.168 188.98C151.266 187.82 151.525 186.679 151.937 185.589C152.348 184.419 152.886 183.207 153.357 181.91C153.894 180.584 154.215 179.182 154.305 177.756C154.306 176.221 154.016 174.7 153.451 173.271C152.886 171.808 152.418 170.31 152.049 168.787C151.757 167.334 151.757 165.839 152.049 164.387C152.587 161.631 153.545 159.3 153.904 157.257C154.263 155.652 154.263 153.988 153.904 152.382C153.757 151.814 153.572 151.256 153.348 150.712Z" fill="#455A64"/>
<path d="M131.035 196.585C132.531 188.285 134.267 179.579 134.267 179.579C134.267 179.579 145.381 179.689 150.074 166.125C154.571 153.196 157.82 122.041 157.82 122.041C150.709 117.653 142.415 115.529 134.051 115.951C125.687 116.374 117.654 119.324 111.03 124.406L99.9676 191.99C98.6852 199.832 104.464 207.173 112.945 208.47C121.511 209.827 129.607 204.486 131.035 196.585Z" fill="#FFBE9D"/>
<path d="M149.561 145.388C149.483 145.856 149.224 146.274 148.839 146.555C148.454 146.835 147.974 146.955 147.501 146.889C147.268 146.866 147.042 146.797 146.837 146.686C146.631 146.576 146.45 146.426 146.304 146.245C146.157 146.064 146.049 145.856 145.984 145.634C145.92 145.411 145.9 145.178 145.928 144.947C146.007 144.481 146.267 144.064 146.652 143.784C147.036 143.504 147.515 143.383 147.988 143.447C148.223 143.463 148.453 143.527 148.662 143.636C148.871 143.744 149.055 143.894 149.203 144.076C149.35 144.259 149.458 144.469 149.52 144.695C149.582 144.921 149.596 145.157 149.561 145.388Z" fill="#263238"/>
<path d="M152.844 143.896C152.579 144.091 151.391 142.845 149.424 142.514C147.458 142.184 145.885 142.896 145.714 142.616C145.637 142.497 145.936 142.116 146.637 141.768C147.58 141.336 148.634 141.206 149.655 141.395C150.666 141.564 151.596 142.051 152.305 142.786C152.844 143.354 152.972 143.811 152.844 143.896Z" fill="#263238"/>
<path d="M129.624 142.252C129.549 142.72 129.29 143.14 128.904 143.421C128.519 143.701 128.037 143.82 127.564 143.752C127.33 143.736 127.101 143.672 126.893 143.564C126.684 143.456 126.5 143.307 126.353 143.126C126.205 142.944 126.097 142.734 126.035 142.51C125.972 142.285 125.958 142.05 125.991 141.819C126.071 141.352 126.33 140.934 126.715 140.653C127.099 140.371 127.578 140.249 128.051 140.31C128.284 140.333 128.51 140.402 128.715 140.513C128.921 140.623 129.102 140.773 129.248 140.954C129.395 141.135 129.503 141.342 129.568 141.565C129.632 141.788 129.652 142.021 129.624 142.252Z" fill="#263238"/>
<path d="M132.463 141.022C132.198 141.217 131.009 139.971 129.043 139.64C127.077 139.31 125.504 140.022 125.333 139.742C125.247 139.623 125.546 139.242 126.256 138.894C127.195 138.462 128.247 138.332 129.265 138.521C130.278 138.691 131.21 139.179 131.924 139.912C132.463 140.514 132.591 140.971 132.463 141.022Z" fill="#263238"/>
<path d="M136.968 156.562C138.049 156.43 139.143 156.43 140.225 156.562C140.729 156.562 141.217 156.562 141.362 156.257C141.493 155.755 141.466 155.225 141.285 154.739C141.037 153.467 140.764 152.136 140.49 150.746C139.396 145.058 138.703 140.42 138.934 140.378C139.165 140.336 140.234 144.905 141.328 150.594C141.584 151.992 141.824 153.332 142.063 154.603C142.268 155.252 142.238 155.95 141.978 156.579C141.874 156.74 141.735 156.876 141.57 156.976C141.406 157.076 141.221 157.137 141.029 157.155C140.745 157.19 140.458 157.19 140.174 157.155C139.084 157.09 138.008 156.89 136.968 156.562Z" fill="#263238"/>
<path d="M134.266 179.579C127.624 178.525 121.408 175.66 116.313 171.304C116.313 171.304 119.177 181.689 133.488 182.842L134.266 179.579Z" fill="#EB996E"/>
<path d="M135.326 161.063C135.04 160.537 134.622 160.092 134.114 159.77C133.605 159.448 133.022 159.26 132.42 159.224C131.985 159.186 131.547 159.236 131.132 159.372C130.718 159.508 130.336 159.725 130.009 160.012C129.689 160.286 129.464 160.652 129.363 161.059C129.261 161.466 129.29 161.894 129.445 162.284C129.695 162.683 130.06 162.999 130.492 163.191C130.925 163.383 131.406 163.442 131.872 163.361C132.849 163.205 133.782 162.853 134.617 162.327C134.866 162.214 135.09 162.052 135.275 161.852C135.364 161.759 135.424 161.641 135.445 161.514C135.466 161.387 135.449 161.257 135.395 161.14" fill="#EB996E"/>
<path d="M131.018 156.901C131.343 156.901 131.018 159.029 132.514 160.826C134.01 162.623 136.335 162.784 136.301 163.081C136.301 163.217 135.728 163.395 134.779 163.259C133.542 163.056 132.415 162.433 131.591 161.496C130.807 160.589 130.408 159.416 130.479 158.223C130.556 157.333 130.881 156.858 131.018 156.901Z" fill="#263238"/>
<path d="M120.545 114.479C124.307 122.702 136.489 132.706 145.893 136.258C145.038 134.562 139.755 129.789 138.9 128.094C142.696 132.18 148.176 137.733 153.981 139.115C154.649 139.335 155.368 139.359 156.05 139.183C156.429 138.981 156.756 138.696 157.007 138.349C157.257 138.002 157.424 137.603 157.495 137.182C158.617 133.027 159.282 128.763 159.478 124.465C159.68 120.847 158.477 117.289 156.118 114.521C152.912 110.944 147.68 109.231 142.636 108.171C138.413 107.324 133.993 106.713 129.812 107.51C125.632 108.307 121.759 110.681 120.502 114.182" fill="#263238"/>
<path d="M98.1123 145.448C98.0408 142.256 98.1607 139.063 98.4714 135.885C99.4204 128.62 101.703 102.22 126.282 109.011L123.666 115.793C123.666 115.793 125.555 132.748 112.937 141.904C112.937 141.904 112.988 158.859 104.259 164.989C104.259 164.989 98.1636 153.484 98.1123 145.49" fill="#263238"/>
<path d="M113.466 140.743C112.015 140.16 110.43 139.984 108.884 140.234C107.332 140.503 105.95 141.368 105.037 142.642C104.194 143.964 103.889 145.555 104.182 147.092C104.483 148.63 105.132 150.079 106.08 151.331C106.693 152.268 107.519 153.049 108.491 153.612C108.981 153.882 109.53 154.029 110.091 154.039C110.651 154.05 111.206 153.923 111.705 153.671" fill="#FFBE9D"/>
<path d="M111.021 149.636C111.184 149.729 110.372 150.483 109.064 149.907C108.718 149.72 108.413 149.467 108.167 149.163C107.92 148.859 107.737 148.51 107.627 148.135C107.352 147.296 107.245 146.412 107.311 145.532C107.362 144.582 107.753 143.68 108.414 142.989C108.689 142.691 109.03 142.46 109.409 142.313C109.788 142.166 110.197 142.108 110.602 142.141C112.022 142.362 112.312 143.404 112.124 143.404C111.936 143.404 111.526 142.904 110.56 142.964C109.594 143.023 108.559 144.032 108.482 145.575C108.405 147.118 108.722 148.644 109.482 149.135C110.243 149.627 110.953 149.5 111.021 149.636Z" fill="#EB996E"/>
<path d="M109.73 156.112C107.473 156.96 106.584 159.826 106.935 162.208C107.285 164.59 108.533 166.743 109.38 168.99C110.226 171.237 110.619 173.932 109.32 175.967C108.268 177.62 106.285 178.578 105.473 180.35C104.019 183.521 106.995 186.81 108.038 190.133C108.734 192.377 108.516 194.802 107.43 196.888C106.343 198.974 104.476 200.554 102.228 201.29C99.9795 202.026 97.5301 201.858 95.4052 200.823C93.2803 199.788 91.6493 197.968 90.8624 195.754C88.4601 188.972 94.624 181.596 92.8885 174.628" fill="#263238"/>
<path d="M107.721 111.885C101.215 117.048 93.6322 129.281 93.0851 137.521C92.726 142.786 93.7263 148.389 91.324 153.094C89.9646 155.756 87.6564 157.799 85.7072 160.08C83.758 162.36 82.0738 165.167 82.373 168.142C82.809 172.339 87.0066 175.348 87.6906 179.511C88.1009 181.995 87.1862 184.479 86.6219 186.937C86.0577 189.396 85.9294 192.236 87.588 194.143C90.2553 197.195 97.7615 204.113 99.7876 200.603C101.814 197.093 99.4456 184.123 99.1379 180.087C97.525 158.784 99.4602 137.363 104.866 116.683" fill="#263238"/>
<path d="M85.5793 188.667C85.8933 188.66 86.2057 188.621 86.5112 188.548C86.8741 188.439 87.2133 188.263 87.5114 188.031C87.9102 187.703 88.2387 187.3 88.4775 186.844C88.786 186.281 88.9724 185.66 89.0246 185.021C89.0756 184.261 88.9253 183.501 88.5886 182.817C87.6834 181.163 86.3682 179.766 84.7671 178.756C83.9122 178.137 82.9889 177.51 82.0913 176.764C81.1264 176.007 80.3118 175.078 79.6889 174.026C79.3796 173.455 79.1522 172.844 79.0136 172.211C78.8882 171.555 78.8479 170.886 78.8939 170.219C79.032 168.837 79.4415 167.495 80.0993 166.269C81.3817 163.725 83.6215 161.682 85.7075 159.487C86.7879 158.397 87.7532 157.201 88.5886 155.917C89.4024 154.58 89.9806 153.115 90.2984 151.585C90.9653 148.466 90.7686 145.303 90.666 142.26C90.6147 140.751 90.5634 139.25 90.6062 137.784C90.6062 137.055 90.6831 136.326 90.7772 135.614C90.8199 135.257 90.8456 134.901 90.8969 134.545L91.102 133.511C92.1113 128.618 94.436 124.086 97.8302 120.396C99.1281 118.996 100.56 117.724 102.105 116.598C102.814 116.132 103.464 115.683 104.088 115.318C104.712 114.954 105.294 114.631 105.798 114.386L107.243 113.733C107.662 113.563 108.038 113.445 108.329 113.343L109.004 113.114C109.078 113.083 109.155 113.06 109.235 113.046C109.235 113.046 109.166 113.046 109.021 113.156L108.363 113.419C108.072 113.546 107.704 113.673 107.294 113.851L105.875 114.538C105.345 114.792 104.789 115.149 104.165 115.496C103.541 115.844 102.917 116.344 102.224 116.793C100.704 117.931 99.296 119.208 98.0183 120.608C94.7036 124.277 92.4395 128.758 91.4611 133.587C91.3927 133.926 91.3329 134.266 91.2645 134.613C91.1961 134.961 91.1875 135.308 91.1533 135.656C91.0593 136.36 91.0166 137.072 90.9909 137.801C90.9909 139.25 90.9909 140.734 91.0593 142.243C91.1704 145.261 91.3756 148.449 90.6917 151.653C90.3586 153.232 89.7573 154.742 88.9135 156.121C88.0605 157.429 87.0751 158.648 85.9726 159.758C83.8609 161.954 81.698 163.937 80.4156 166.413C79.7795 167.589 79.3789 168.875 79.2358 170.202C79.188 170.834 79.2225 171.47 79.3384 172.093C79.4628 172.685 79.673 173.256 79.9625 173.788C80.5534 174.809 81.3337 175.709 82.2622 176.442C83.1171 177.179 84.049 177.815 84.9039 178.443C86.5323 179.507 87.8595 180.966 88.7596 182.681C89.1072 183.404 89.2547 184.206 89.187 185.004C89.119 185.669 88.9123 186.313 88.58 186.895C88.32 187.361 87.9682 187.77 87.5456 188.099C87.2287 188.332 86.8685 188.502 86.4855 188.599C86.2538 188.657 86.0146 188.68 85.7759 188.667H85.5793Z" fill="#263238"/>
<path d="M95.4533 200.086C95.3591 200.073 95.2671 200.047 95.1798 200.01C94.9265 199.892 94.6997 199.724 94.5129 199.518C94.1611 199.113 93.9061 198.634 93.7669 198.117C93.6278 197.6 93.6081 197.059 93.7093 196.534C93.8717 195.118 94.966 193.745 95.8466 192.058C96.3072 191.15 96.5529 190.149 96.5647 189.133C96.5527 187.992 96.3296 186.862 95.9064 185.801C95.4507 184.618 94.8779 183.482 94.1966 182.41C93.487 181.299 92.6407 180.197 91.837 179.019C90.9737 177.795 90.2403 176.485 89.6485 175.111C88.998 173.635 88.7731 172.009 88.9987 170.414C89.3245 168.75 90.112 167.208 91.2728 165.963C92.3842 164.658 93.6922 163.522 94.9147 162.267C96.168 161.033 97.2052 159.6 97.9839 158.028C98.7412 156.377 99.2593 154.627 99.5227 152.832C100.104 149.186 99.9502 145.549 99.9844 142.048C99.9844 140.293 100.044 138.564 100.19 136.885L100.318 135.622L100.523 134.393C100.654 133.581 100.831 132.777 101.053 131.985C102.595 126.45 105.659 121.448 109.901 117.539C111.54 116.053 113.324 114.732 115.227 113.597C116.082 113.139 116.877 112.682 117.638 112.342C118.399 112.003 119.1 111.681 119.75 111.495L121.46 110.91C121.964 110.757 122.409 110.672 122.759 110.579L123.563 110.393C123.653 110.37 123.744 110.353 123.836 110.342C123.752 110.383 123.663 110.414 123.571 110.435L122.776 110.664C122.434 110.766 121.998 110.876 121.503 111.028L119.793 111.656C119.152 111.885 118.476 112.232 117.715 112.563C116.954 112.893 116.185 113.411 115.339 113.843C113.467 114.989 111.715 116.315 110.107 117.802C105.908 121.709 102.891 126.7 101.395 132.214C101.171 132.99 100.999 133.78 100.882 134.579L100.677 135.792L100.549 137.038C100.412 138.733 100.361 140.429 100.361 142.124C100.483 145.748 100.331 149.375 99.9074 152.976C99.6324 154.812 99.1001 156.601 98.3259 158.291C97.5286 159.916 96.459 161.395 95.1627 162.666C93.9316 163.929 92.5979 165.065 91.5378 166.328C90.423 167.51 89.6648 168.979 89.3493 170.567C89.1254 172.091 89.3356 173.648 89.9562 175.06C90.5272 176.412 91.2377 177.702 92.0764 178.909C92.8715 180.087 93.7179 181.198 94.4274 182.3C95.1248 183.37 95.7147 184.506 96.1886 185.691C96.6084 186.794 96.8256 187.962 96.8298 189.141C96.8095 190.196 96.5433 191.232 96.0518 192.168C95.1285 193.863 94.0427 195.211 93.8632 196.559C93.7571 197.064 93.7649 197.586 93.8861 198.087C94.0073 198.588 94.2389 199.057 94.5642 199.459C94.8118 199.728 95.115 199.942 95.4533 200.086Z" fill="#455A64"/>
<path d="M155.708 138.911C155.6 138.81 155.506 138.696 155.426 138.572L154.69 137.529C154.024 136.572 153.126 135.266 152.04 133.681L143.423 120.888C141.874 118.535 140.026 116.39 137.926 114.504C136.193 112.992 134.152 111.87 131.941 111.215C130.451 110.774 128.888 110.63 127.342 110.791C126.247 110.927 125.632 111.13 125.632 111.079C125.762 111.011 125.9 110.957 126.042 110.918C126.452 110.784 126.872 110.685 127.299 110.621C128.872 110.39 130.477 110.488 132.01 110.91C134.283 111.538 136.389 112.659 138.173 114.191C140.319 116.083 142.202 118.249 143.773 120.634C147.193 125.635 150.125 130.205 152.322 133.503C153.357 135.122 154.22 136.453 154.887 137.436L155.554 138.521C155.623 138.644 155.675 138.775 155.708 138.911Z" fill="#455A64"/>
<path d="M119.408 190.871L130.445 237.947L140.14 236.251L132.377 188.667L119.408 190.871Z" fill="#263238"/>
<path d="M129.291 184.818C132.463 183.783 133.386 178.265 133.386 174.958C133.386 170.482 129.402 168.252 126.094 167.82C124.429 167.639 122.749 167.959 121.271 168.74C119.793 169.52 118.587 170.724 117.809 172.195C117.077 173.689 116.787 175.359 116.975 177.01C117.163 178.661 117.82 180.225 118.87 181.52C119.953 182.784 121.356 183.741 122.935 184.292C124.513 184.843 126.211 184.969 127.855 184.657" fill="#263238"/>
<path d="M112.192 182.647L114.723 202.129L144.38 195.864L139.182 178.485L112.192 182.647Z" fill="#FF725E"/>
<g opacity="0.4">
<path d="M140.627 183.317L119.408 186.123L121.64 194.126L142.713 190.311L140.627 183.317Z" fill="#FAFAFA"/>
</g>
<path d="M133.386 175.424C132.601 175.647 131.797 175.795 130.984 175.865C129.496 176.069 127.427 176.289 125.136 176.433C122.845 176.577 120.767 176.628 119.263 176.611C118.448 176.651 117.632 176.608 116.826 176.484C117.628 176.35 118.441 176.287 119.254 176.298C120.759 176.23 122.828 176.137 125.11 175.992C127.393 175.848 129.453 175.679 130.949 175.552C131.756 175.435 132.571 175.393 133.386 175.424Z" fill="#FAFAFA"/>
<path d="M121.699 200.654L133.907 198.077V199.264L121.913 201.553L121.699 200.654Z" fill="#263238"/>
<path d="M101.865 226.799L107.131 224.052C107.131 224.052 115.877 205.613 118.297 204.647C120.289 203.85 131.591 200.493 135.523 199.323C135.884 199.217 136.272 199.257 136.603 199.433C136.934 199.609 137.182 199.908 137.293 200.264C137.406 200.609 137.381 200.985 137.221 201.312C137.062 201.639 136.781 201.892 136.438 202.019L123.289 206.631L123.563 207.716L136.908 203.757C138.302 203.443 139.841 205.308 135.617 207.029L124.589 210.852L124.803 211.539L136.6 209.632C137.19 209.53 138.789 209.36 138.977 209.928C138.977 209.928 140.106 211.124 137.011 212.514C135.942 212.989 126.034 215.685 126.034 215.685L126.683 216.448L137.524 215.49C137.904 215.459 138.282 215.571 138.582 215.803C138.883 216.036 139.085 216.372 139.148 216.744C139.207 217.123 139.117 217.509 138.898 217.825C138.679 218.14 138.346 218.36 137.968 218.44L126.803 220.788L120.776 229.597C119.493 231.477 117.602 232.867 115.416 233.539L104.55 236.887L101.865 226.799Z" fill="#FFBE9D"/>
<path d="M135.549 199.323C135.549 199.323 135.42 199.399 135.173 199.492L134.044 199.882L129.881 201.213L123.717 203.172L120.066 204.308L119.117 204.605L118.63 204.757C118.477 204.792 118.33 204.849 118.194 204.927C117.661 205.319 117.199 205.798 116.826 206.342C115.324 208.486 113.968 210.726 112.765 213.048C111.62 215.176 110.628 217.117 109.807 218.754L107.875 222.628C107.661 223.052 107.49 223.399 107.345 223.679C107.2 223.959 107.148 224.044 107.131 224.035C107.156 223.9 107.199 223.769 107.26 223.645L107.721 222.56C108.132 221.619 108.739 220.271 109.525 218.618C110.312 216.965 111.235 215.007 112.398 212.862C113.595 210.511 114.954 208.245 116.467 206.08C116.874 205.484 117.383 204.965 117.972 204.545C118.134 204.458 118.306 204.389 118.485 204.342L118.972 204.189L119.929 203.901L123.588 202.782L129.787 200.917L133.976 199.696L135.113 199.391C135.255 199.353 135.401 199.33 135.549 199.323Z" fill="#EB996E"/>
<path d="M42.5856 295.23C44.5485 297.08 46.8756 298.508 49.4209 299.424C51.9663 300.34 54.675 300.725 57.3774 300.555C60.0798 300.385 62.7176 299.663 65.1255 298.434C67.5334 297.206 69.6595 295.497 71.3705 293.416L117.536 236.955L101.122 216.304L43.2182 266.491C41.1691 268.274 39.5162 270.46 38.3644 272.91C37.2126 275.36 36.5871 278.02 36.5276 280.723C36.4681 283.425 36.976 286.111 38.0188 288.608C39.0617 291.105 40.6169 293.361 42.5856 295.23Z" fill="#455A64"/>
<path d="M74.089 291.076C74.089 291.076 74.1488 290.975 74.2856 290.788C74.4224 290.602 74.6361 290.33 74.9012 289.991L77.3206 286.914L86.3912 275.52L117.373 236.819V237.082L105.994 222.789L100.95 216.439H101.267C84.3993 231.156 69.7033 244.61 58.9741 254.114C53.6224 258.878 49.2965 262.693 46.2872 265.296L42.8675 268.271L41.9613 269.034L41.645 269.289C41.645 269.289 41.7391 269.187 41.9357 269.009L42.7906 268.212L46.2103 265.169L58.8117 253.893C69.481 244.331 84.1428 230.843 101.01 216.109L101.19 215.956L101.335 216.143L106.379 222.484L117.715 236.819L117.818 236.955L117.715 237.091L86.6135 275.706L77.4146 287.024L74.9439 290.059L74.2942 290.83L74.089 291.076Z" fill="#263238"/>
<path d="M79.9797 283.218C79.6944 283.754 79.2982 284.225 78.817 284.599C77.4877 285.619 75.8554 286.173 74.1748 286.176C73.0205 286.218 71.8668 286.08 70.7552 285.769C69.4967 285.394 68.2794 284.894 67.1218 284.277C64.6682 283.031 62.1718 281.276 59.1796 280.335C56.3598 279.446 53.3825 279.157 50.4424 279.487C48.045 279.78 45.7119 280.459 43.5347 281.497C42.0687 282.206 40.6891 283.079 39.4226 284.099C38.5677 284.845 38.0804 285.286 38.0547 285.252C38.0291 285.218 38.1487 285.125 38.3539 284.905C38.5591 284.684 38.8754 284.345 39.3114 283.972C40.5508 282.886 41.9239 281.96 43.3979 281.217C45.5901 280.119 47.9551 279.399 50.3911 279.089C53.3893 278.708 56.435 278.98 59.3164 279.886C62.3941 280.852 64.899 282.633 67.3184 283.879C68.4426 284.499 69.6288 285.002 70.8578 285.379C71.9274 285.699 73.0408 285.85 74.1577 285.829C75.7856 285.856 77.3795 285.366 78.7059 284.43C79.1626 284.06 79.5885 283.655 79.9797 283.218Z" fill="#F5F5F5"/>
<path d="M102.797 254.572C102.797 254.572 102.686 254.682 102.455 254.843C102.105 255.08 101.736 255.29 101.352 255.47C99.9815 256.175 98.4869 256.613 96.9496 256.759C94.6548 256.973 92.3452 256.547 90.2813 255.53C87.9388 254.428 85.7332 252.656 83.2026 251.215C80.8025 249.887 78.1772 249.008 75.4571 248.62C73.2345 248.301 70.9771 248.301 68.7546 248.62C67.2552 248.832 65.7805 249.19 64.3518 249.689C63.343 250.045 62.7873 250.282 62.7787 250.248C62.7702 250.214 62.8984 250.163 63.1549 250.036C63.5245 249.847 63.9041 249.677 64.2919 249.527C65.716 248.962 67.1981 248.553 68.7118 248.307C70.9745 247.939 73.28 247.91 75.5511 248.222C78.3266 248.591 81.0068 249.477 83.4505 250.833C86.0153 252.3 88.2124 254.071 90.4865 255.165C92.4846 256.172 94.7234 256.615 96.9582 256.445C98.465 256.33 99.9388 255.948 101.31 255.318C102.276 254.885 102.772 254.538 102.797 254.572Z" fill="#F5F5F5"/>
<path d="M231.684 205.732C231.637 206.071 231.551 206.404 231.427 206.724C231.239 207.351 230.923 208.258 230.496 209.352C230.068 210.446 229.512 211.743 228.828 213.141C228.511 213.927 228.033 214.64 227.426 215.235C227.244 215.405 227.029 215.535 226.793 215.618C226.558 215.7 226.307 215.734 226.058 215.715C225.809 215.697 225.566 215.628 225.346 215.511C225.125 215.395 224.931 215.235 224.776 215.04C224.458 214.668 224.248 214.217 224.169 213.735C224.113 213.281 224.145 212.821 224.263 212.378C224.498 211.586 224.807 210.817 225.187 210.081L226.896 206.334L228.11 203.791C228.245 203.476 228.414 203.178 228.615 202.9C228.536 203.234 228.422 203.558 228.273 203.867C227.974 204.554 227.615 205.41 227.179 206.41C226.743 207.411 226.136 208.792 225.469 210.191C225.126 210.911 224.84 211.657 224.614 212.421C224.52 212.812 224.497 213.217 224.545 213.616C224.606 214.016 224.778 214.392 225.041 214.701C225.159 214.852 225.308 214.977 225.477 215.067C225.647 215.158 225.834 215.211 226.026 215.225C226.218 215.238 226.411 215.212 226.592 215.146C226.773 215.081 226.938 214.978 227.076 214.845C227.639 214.294 228.087 213.637 228.393 212.913C229.094 211.531 229.675 210.259 230.102 209.182C230.53 208.106 230.957 207.224 231.162 206.639C231.301 206.318 231.476 206.014 231.684 205.732Z" fill="#EB996E"/>
<path d="M228.41 217.677C228.41 217.745 227.828 217.533 226.837 217.491C225.512 217.435 224.204 217.797 223.101 218.525L222.742 218.771V218.338C222.789 217.545 222.789 216.749 222.742 215.956C222.607 214.083 222.204 212.239 221.545 210.48C221.04 209.123 220.596 208.335 220.69 208.301C221.195 208.918 221.594 209.614 221.87 210.361C222.634 212.125 223.091 214.006 223.22 215.922C223.276 216.735 223.276 217.551 223.22 218.364L222.887 218.177C224.071 217.415 225.484 217.08 226.888 217.228C227.424 217.255 227.946 217.409 228.41 217.677Z" fill="#EB996E"/>
<path d="M234.608 210.437C234.565 210.712 234.478 210.978 234.351 211.226C234.163 211.717 233.873 212.429 233.496 213.303L232.889 214.735C232.666 215.305 232.379 215.848 232.035 216.354C231.833 216.65 231.573 216.902 231.27 217.094C230.968 217.287 230.628 217.416 230.273 217.474C229.874 217.538 229.466 217.46 229.119 217.253C228.773 217.032 228.509 216.704 228.367 216.321C228.14 215.607 228.107 214.846 228.273 214.116C228.396 213.461 228.576 212.817 228.811 212.192C229.209 211.146 229.675 210.127 230.205 209.14L231.299 207.148C231.406 206.89 231.547 206.648 231.718 206.427C231.418 207.412 231.023 208.366 230.538 209.276C230.145 210.123 229.684 211.158 229.247 212.328C229.034 212.936 228.868 213.559 228.752 214.193C228.609 214.847 228.638 215.528 228.837 216.168C228.936 216.454 229.134 216.695 229.395 216.85C229.656 217.006 229.964 217.064 230.265 217.016C230.565 216.97 230.853 216.863 231.11 216.703C231.367 216.542 231.589 216.331 231.761 216.083C232.097 215.607 232.383 215.099 232.616 214.566L233.266 213.15C233.676 212.302 234.009 211.599 234.249 211.124C234.337 210.88 234.457 210.649 234.608 210.437Z" fill="#EB996E"/>
</svg>
