<svg width="25" height="32" viewBox="0 0 25 32" fill="none" xmlns="http://www.w3.org/2000/svg">
<path d="M21.2502 10.6667H19.7918V7.75001C19.7918 3.72501 16.5252 0.458344 12.5002 0.458344C8.47516 0.458344 5.2085 3.72501 5.2085 7.75001V10.6667H3.75016C2.146 10.6667 0.833496 11.9792 0.833496 13.5833V28.1667C0.833496 29.7708 2.146 31.0833 3.75016 31.0833H21.2502C22.8543 31.0833 24.1668 29.7708 24.1668 28.1667V13.5833C24.1668 11.9792 22.8543 10.6667 21.2502 10.6667ZM8.12516 7.75001C8.12516 5.32918 10.0793 3.37501 12.5002 3.37501C14.921 3.37501 16.8752 5.32918 16.8752 7.75001V10.6667H8.12516V7.75001ZM21.2502 28.1667H3.75016V13.5833H21.2502V28.1667ZM12.5002 23.7917C14.1043 23.7917 15.4168 22.4792 15.4168 20.875C15.4168 19.2708 14.1043 17.9583 12.5002 17.9583C10.896 17.9583 9.5835 19.2708 9.5835 20.875C9.5835 22.4792 10.896 23.7917 12.5002 23.7917Z" fill="black"/>
</svg>
