<svg width="26" height="26" viewBox="0 0 26 26" fill="none" xmlns="http://www.w3.org/2000/svg">
<path fill-rule="evenodd" clip-rule="evenodd" d="M13 13.0056C10.1322 13.0056 7.8 10.6734 7.8 7.80562C7.8 4.93782 10.1322 2.60562 13 2.60562C15.8678 2.60562 18.2 4.93782 18.2 7.80562C18.2 10.6734 15.8678 13.0056 13 13.0056ZM17.8854 13.8805C18.7956 13.1512 19.5302 12.2267 20.0347 11.1751C20.5392 10.1236 20.8007 8.97194 20.8 7.80562C20.801 6.48683 20.4675 5.1894 19.8308 4.03448C19.1942 2.87955 18.2751 1.90478 17.1594 1.20152C16.0438 0.49826 14.7681 0.089416 13.4515 0.0130784C12.1349 -0.0632592 10.8205 0.19551 9.63106 0.765117C8.44163 1.33472 7.41604 2.19661 6.65016 3.27022C5.88428 4.34382 5.40309 5.59403 5.25161 6.90409C5.10014 8.21416 5.2833 9.5412 5.78398 10.7612C6.28467 11.9813 7.08654 13.0545 8.1146 13.8805C3.35791 15.668 0 20.0841 0 26.0056H2.6C2.6 19.5056 7.2657 15.6056 13 15.6056C18.7343 15.6056 23.4 19.5056 23.4 26.0056H26C26 20.0841 22.6421 15.668 17.8854 13.8805Z" fill="black"/>
</svg>
